%
M48
M72
T01C0.0315
T02C0.0320
T03C0.0380
T04C0.0400
T05C0.0440
T06C0.0520
%
T01
X14550Y4814
X15550Y4814
X16550Y4814
X3550Y5314
T02
X3050Y6314
X7550Y5814
X8550Y5814
X9550Y5814
X10550Y5814
X11550Y5814
X12550Y5814
X13550Y5814
X14550Y5814
X15550Y5814
X16550Y5814
X17550Y5814
X18550Y5814
X19550Y5814
X20550Y5814
X22550Y5814
X22550Y6814
X27050Y7314
X28050Y7314
X26050Y8814
X25050Y8814
X22550Y8814
X20550Y8814
X19550Y8814
X18550Y8814
X17550Y8814
X16550Y8814
X15550Y8814
X14550Y8814
X13550Y8814
X12550Y8814
X11550Y8814
X10550Y8814
X9550Y8814
X8550Y8814
X7550Y8814
X4550Y9814
X3550Y9814
X3050Y8314
X22050Y9814
X23050Y9814
X22550Y4814
T03
X1550Y4814
X1550Y5814
X1550Y6814
X1550Y7814
X1550Y8814
X1550Y9814
X17550Y4814
X18550Y4814
X19550Y4814
X20550Y4814
T04
X26050Y5314
X27050Y5314
X28050Y5314
X29050Y8314
X29050Y9314
X20550Y9814
X19550Y9814
X18550Y9814
X17550Y9814
X16550Y9814
X15550Y9814
X14550Y9814
X13550Y9814
X12550Y9814
X11550Y9814
X10550Y9814
X9550Y9814
X8550Y9814
X7550Y9814
X6550Y9814
X5550Y9814
X5940Y8594
X4160Y8594
X4160Y6034
X5940Y6034
X5550Y4814
X6550Y4814
X7550Y4814
X8550Y4814
X9550Y4814
X10550Y4814
X11550Y4814
X12550Y4814
X13550Y4814
T05
X24050Y4814
X24050Y8814
T06
X31550Y7282
X29700Y6101
X31550Y4920
M30
