G75*
%MOIN*%
%OFA0B0*%
%FSLAX25Y25*%
%IPPOS*%
%LPD*%
%AMOC8*
5,1,8,0,0,1.08239X$1,22.5*
%
%ADD10C,0.06600*%
%ADD11C,0.07600*%
%ADD12OC8,0.07600*%
%ADD13C,0.11600*%
%ADD14C,0.07200*%
%ADD15C,0.05324*%
%ADD16C,0.08000*%
%ADD17C,0.07800*%
%ADD18OC8,0.05400*%
%ADD19OC8,0.07200*%
D10*
X0260500Y0050137D02*
X0260500Y0056137D01*
X0270500Y0056137D02*
X0270500Y0050137D01*
X0280500Y0050137D02*
X0280500Y0056137D01*
D11*
X0270500Y0073137D03*
X0250500Y0088137D03*
D12*
X0260500Y0088137D03*
X0290500Y0093137D03*
X0290500Y0083137D03*
X0280500Y0073137D03*
D13*
X0315500Y0072822D03*
X0296996Y0061011D03*
X0315500Y0049200D03*
D14*
X0240500Y0048137D03*
X0205500Y0058137D03*
X0195500Y0058137D03*
X0185500Y0058137D03*
X0175500Y0058137D03*
X0165500Y0058137D03*
X0155500Y0058137D03*
X0145500Y0058137D03*
X0135500Y0058137D03*
X0125500Y0058137D03*
X0115500Y0058137D03*
X0105500Y0058137D03*
X0095500Y0058137D03*
X0085500Y0058137D03*
X0075500Y0058137D03*
X0075500Y0088137D03*
X0085500Y0088137D03*
X0095500Y0088137D03*
X0105500Y0088137D03*
X0115500Y0088137D03*
X0125500Y0088137D03*
X0135500Y0088137D03*
X0145500Y0088137D03*
X0155500Y0088137D03*
X0165500Y0088137D03*
X0175500Y0088137D03*
X0185500Y0088137D03*
X0195500Y0088137D03*
X0205500Y0088137D03*
X0240500Y0088137D03*
D15*
X0165500Y0048137D03*
X0155500Y0048137D03*
X0145500Y0048137D03*
X0035500Y0053137D03*
D16*
X0055500Y0048137D03*
X0065500Y0048137D03*
X0075500Y0048137D03*
X0085500Y0048137D03*
X0095500Y0048137D03*
X0105500Y0048137D03*
X0115500Y0048137D03*
X0125500Y0048137D03*
X0135500Y0048137D03*
X0059400Y0060337D03*
X0041600Y0060337D03*
X0041600Y0085937D03*
X0059400Y0085937D03*
X0055500Y0098137D03*
X0065500Y0098137D03*
X0075500Y0098137D03*
X0085500Y0098137D03*
X0095500Y0098137D03*
X0105500Y0098137D03*
X0115500Y0098137D03*
X0125500Y0098137D03*
X0135500Y0098137D03*
X0145500Y0098137D03*
X0155500Y0098137D03*
X0165500Y0098137D03*
X0175500Y0098137D03*
X0185500Y0098137D03*
X0195500Y0098137D03*
X0205500Y0098137D03*
D17*
X0015500Y0048137D03*
X0015500Y0058137D03*
X0015500Y0068137D03*
X0015500Y0078137D03*
X0015500Y0088137D03*
X0015500Y0098137D03*
X0175500Y0048137D03*
X0185500Y0048137D03*
X0195500Y0048137D03*
X0205500Y0048137D03*
D18*
X0225500Y0048137D03*
X0225500Y0058137D03*
X0225500Y0068137D03*
X0225500Y0088137D03*
X0030500Y0083137D03*
X0030500Y0063137D03*
D19*
X0035500Y0098137D03*
X0045500Y0098137D03*
X0220500Y0098137D03*
X0230500Y0098137D03*
M02*
