G75*
%MOIN*%
%OFA0B0*%
%FSLAX25Y25*%
%IPPOS*%
%LPD*%
%AMOC8*
5,1,8,0,0,1.08239X$1,22.5*
%
%ADD10R,0.02000X0.00334*%
%ADD11R,0.02000X0.00333*%
%ADD12R,0.00660X0.00333*%
%ADD13R,0.00670X0.00333*%
%ADD14R,0.00330X0.00333*%
%ADD15R,0.00670X0.00334*%
%ADD16R,0.00330X0.00334*%
%ADD17R,0.00660X0.00334*%
%ADD18R,0.00340X0.00333*%
%ADD19R,0.01000X0.00333*%
%ADD20R,0.01670X0.00334*%
%ADD21R,0.00340X0.00334*%
%ADD22R,0.01330X0.00333*%
%ADD23R,0.01660X0.00333*%
%ADD24R,0.01670X0.00333*%
%ADD25R,0.01330X0.00334*%
%ADD26R,0.01000X0.00334*%
%ADD27R,0.01340X0.00334*%
%ADD28R,0.01660X0.00334*%
%ADD29R,0.02660X0.00334*%
%ADD30R,0.02330X0.00334*%
%ADD31R,0.03340X0.00334*%
%ADD32R,0.03000X0.00334*%
%ADD33R,0.01340X0.00333*%
%ADD34R,0.06330X0.00333*%
%ADD35R,0.05340X0.00333*%
%ADD36R,0.06670X0.00333*%
%ADD37R,0.04340X0.00333*%
%ADD38R,0.06660X0.00333*%
%ADD39R,0.05670X0.00333*%
%ADD40R,0.05330X0.00333*%
%ADD41R,0.06330X0.00334*%
%ADD42R,0.02670X0.00334*%
%ADD43R,0.06670X0.00334*%
%ADD44R,0.02340X0.00334*%
%ADD45R,0.03000X0.00333*%
%ADD46R,0.07340X0.00333*%
%ADD47R,0.07330X0.00333*%
%ADD48R,0.07000X0.00334*%
%ADD49R,0.02330X0.00333*%
%ADD50R,0.06340X0.00333*%
%ADD51R,0.02660X0.00333*%
%ADD52R,0.03670X0.00333*%
%ADD53R,0.06000X0.00334*%
%ADD54R,0.03670X0.00334*%
%ADD55R,0.04000X0.00334*%
%ADD56R,0.04670X0.00334*%
%ADD57R,0.06000X0.00333*%
%ADD58R,0.03330X0.00333*%
%ADD59R,0.04000X0.00333*%
%ADD60R,0.02670X0.00333*%
%ADD61R,0.08660X0.00334*%
%ADD62R,0.08660X0.00333*%
%ADD63R,0.02340X0.00333*%
%ADD64R,0.05000X0.00333*%
%ADD65R,0.04670X0.00333*%
%ADD66R,0.03330X0.00334*%
%ADD67R,0.03340X0.00333*%
%ADD68C,0.00600*%
%ADD69C,0.02000*%
%ADD70R,0.07500X0.05000*%
%ADD71R,0.07000X0.03000*%
%ADD72R,0.03000X0.05000*%
%ADD73C,0.00800*%
%ADD74R,0.10000X0.02000*%
%ADD75R,0.03000X0.07500*%
%ADD76C,0.01000*%
D10*
X0058337Y0054470D03*
X0120337Y0078470D03*
X0146997Y0077470D03*
X0164667Y0074470D03*
X0164997Y0077470D03*
X0173667Y0077470D03*
X0182997Y0077470D03*
X0182997Y0069470D03*
X0160997Y0069470D03*
X0124667Y0092470D03*
X0114667Y0092470D03*
X0094667Y0092470D03*
X0086337Y0092470D03*
X0225667Y0043470D03*
X0274337Y0068470D03*
X0279667Y0068470D03*
X0285005Y0083470D03*
D11*
X0254667Y0083137D03*
X0251997Y0081137D03*
X0273667Y0102137D03*
X0179337Y0073137D03*
X0165337Y0069804D03*
X0164997Y0073137D03*
X0141667Y0069804D03*
X0141667Y0077137D03*
X0123997Y0071137D03*
X0120337Y0078137D03*
X0105667Y0078137D03*
X0048667Y0074804D03*
X0024337Y0096804D03*
X0046337Y0106804D03*
X0161667Y0053137D03*
X0161667Y0051137D03*
X0150337Y0051137D03*
X0225667Y0043804D03*
X0027667Y0046804D03*
X0021667Y0046804D03*
D12*
X0023667Y0046804D03*
X0023667Y0047137D03*
X0023667Y0047804D03*
X0023667Y0048137D03*
X0020667Y0049137D03*
X0028667Y0047137D03*
X0056667Y0053137D03*
X0023667Y0067804D03*
X0021667Y0067137D03*
X0020667Y0067137D03*
X0020667Y0069137D03*
X0023667Y0076804D03*
X0023667Y0079137D03*
X0050667Y0073804D03*
X0053667Y0074804D03*
X0024667Y0088804D03*
X0023667Y0089137D03*
X0023667Y0098804D03*
X0036667Y0104137D03*
X0045667Y0104137D03*
X0045667Y0104804D03*
X0045667Y0105137D03*
X0045667Y0105804D03*
X0045667Y0106137D03*
X0057667Y0094137D03*
X0056667Y0092137D03*
X0062667Y0092137D03*
X0066667Y0092137D03*
X0066667Y0091804D03*
X0086667Y0094137D03*
X0094667Y0094137D03*
X0094667Y0093804D03*
X0107667Y0093804D03*
X0114667Y0093804D03*
X0114667Y0094137D03*
X0124667Y0094137D03*
X0124667Y0093804D03*
X0134667Y0093804D03*
X0134667Y0094137D03*
X0138667Y0093804D03*
X0144667Y0093804D03*
X0154667Y0093804D03*
X0154667Y0094137D03*
X0162667Y0091804D03*
X0163667Y0092137D03*
X0167667Y0091804D03*
X0183667Y0092137D03*
X0193667Y0092137D03*
X0197667Y0091804D03*
X0207667Y0093137D03*
X0223667Y0103804D03*
X0245667Y0103137D03*
X0253667Y0103804D03*
X0253667Y0104137D03*
X0259667Y0104137D03*
X0259667Y0103804D03*
X0259667Y0103137D03*
X0259667Y0102804D03*
X0259667Y0102137D03*
X0260667Y0102804D03*
X0260667Y0103137D03*
X0259667Y0104804D03*
X0271667Y0104137D03*
X0271667Y0102804D03*
X0284667Y0100137D03*
X0312667Y0092137D03*
X0318667Y0092137D03*
X0317667Y0088804D03*
X0317667Y0086804D03*
X0309667Y0085804D03*
X0254667Y0080804D03*
X0226667Y0079804D03*
X0254667Y0062804D03*
X0277667Y0065804D03*
X0152667Y0053804D03*
X0107667Y0054137D03*
X0147667Y0076804D03*
D13*
X0160332Y0069804D03*
X0169332Y0077137D03*
X0137332Y0091804D03*
X0136002Y0092137D03*
X0132002Y0092137D03*
X0127002Y0091804D03*
X0147332Y0093137D03*
X0156002Y0092137D03*
X0168332Y0092137D03*
X0174332Y0092137D03*
X0174332Y0093804D03*
X0185332Y0094137D03*
X0204002Y0091804D03*
X0205332Y0093804D03*
X0221002Y0104137D03*
X0222332Y0104137D03*
X0222332Y0106137D03*
X0221002Y0106137D03*
X0229002Y0104137D03*
X0244332Y0104137D03*
X0244332Y0103804D03*
X0244332Y0103137D03*
X0244332Y0102804D03*
X0244332Y0102137D03*
X0254332Y0102804D03*
X0262332Y0102804D03*
X0262332Y0103137D03*
X0268002Y0102804D03*
X0268332Y0103137D03*
X0284002Y0099137D03*
X0284002Y0098804D03*
X0288002Y0100804D03*
X0285002Y0101137D03*
X0313332Y0091804D03*
X0317002Y0092137D03*
X0317332Y0093137D03*
X0316332Y0093804D03*
X0317002Y0088137D03*
X0317332Y0087137D03*
X0314002Y0087137D03*
X0310002Y0086137D03*
X0259332Y0082804D03*
X0259332Y0082137D03*
X0259332Y0081137D03*
X0259332Y0080804D03*
X0255002Y0081804D03*
X0255332Y0082804D03*
X0252332Y0082804D03*
X0227002Y0080137D03*
X0226002Y0079137D03*
X0256332Y0064137D03*
X0256332Y0063804D03*
X0256332Y0062804D03*
X0256332Y0062137D03*
X0254332Y0062137D03*
X0272002Y0068137D03*
X0275002Y0067804D03*
X0274332Y0066137D03*
X0279002Y0066137D03*
X0279002Y0065804D03*
X0279002Y0066804D03*
X0279002Y0067804D03*
X0279002Y0068137D03*
X0207002Y0052137D03*
X0205332Y0052804D03*
X0195002Y0054137D03*
X0187002Y0052137D03*
X0185332Y0054137D03*
X0157002Y0053804D03*
X0155002Y0053804D03*
X0155002Y0054137D03*
X0150332Y0054137D03*
X0150332Y0053137D03*
X0150332Y0052804D03*
X0150332Y0052137D03*
X0150332Y0051804D03*
X0153002Y0051137D03*
X0156002Y0051804D03*
X0156002Y0052137D03*
X0127002Y0054137D03*
X0125332Y0053804D03*
X0125332Y0052804D03*
X0105332Y0054137D03*
X0095332Y0052804D03*
X0087002Y0052137D03*
X0085332Y0053804D03*
X0074332Y0052137D03*
X0069332Y0053137D03*
X0066332Y0052804D03*
X0064002Y0053137D03*
X0062332Y0054137D03*
X0028332Y0049137D03*
X0025332Y0047137D03*
X0025332Y0046804D03*
X0021002Y0066804D03*
X0022002Y0068137D03*
X0023332Y0068804D03*
X0025002Y0069137D03*
X0024002Y0067137D03*
X0029332Y0073137D03*
X0031002Y0075804D03*
X0031332Y0076137D03*
X0025002Y0077137D03*
X0024332Y0077804D03*
X0024332Y0078137D03*
X0025002Y0078804D03*
X0022332Y0077137D03*
X0025002Y0087137D03*
X0024332Y0088137D03*
X0025332Y0097137D03*
X0025332Y0097804D03*
X0022332Y0099137D03*
X0036332Y0106137D03*
X0041002Y0106804D03*
X0065332Y0094137D03*
X0065332Y0093804D03*
X0062332Y0092804D03*
X0063332Y0091804D03*
X0068002Y0091804D03*
X0069002Y0092137D03*
X0069332Y0093804D03*
X0084002Y0093804D03*
X0084002Y0094137D03*
X0097002Y0093137D03*
X0054332Y0091804D03*
X0052002Y0074804D03*
X0053002Y0072137D03*
D14*
X0020502Y0047137D03*
X0020502Y0048804D03*
X0022502Y0049137D03*
X0022502Y0047804D03*
X0022502Y0047137D03*
X0024502Y0048137D03*
X0024832Y0047804D03*
X0025502Y0047804D03*
X0025502Y0048137D03*
X0025502Y0048804D03*
X0025502Y0049137D03*
X0026832Y0049137D03*
X0026832Y0048804D03*
X0026832Y0048137D03*
X0026832Y0047804D03*
X0026832Y0047137D03*
X0028832Y0047804D03*
X0028832Y0048137D03*
X0028832Y0048804D03*
X0054502Y0052804D03*
X0054832Y0052137D03*
X0056832Y0052804D03*
X0055502Y0053804D03*
X0055502Y0054137D03*
X0054502Y0054137D03*
X0054502Y0053804D03*
X0064832Y0053804D03*
X0064832Y0054137D03*
X0065502Y0054137D03*
X0065502Y0053804D03*
X0065832Y0053137D03*
X0066502Y0053137D03*
X0066502Y0053804D03*
X0066502Y0054137D03*
X0067502Y0054137D03*
X0067502Y0053804D03*
X0067502Y0053137D03*
X0067502Y0052804D03*
X0066502Y0052137D03*
X0064832Y0052137D03*
X0064832Y0052804D03*
X0064832Y0053137D03*
X0073832Y0053804D03*
X0073832Y0054137D03*
X0076502Y0053137D03*
X0076502Y0052804D03*
X0076832Y0052137D03*
X0077502Y0053804D03*
X0077502Y0054137D03*
X0083502Y0054137D03*
X0083502Y0053804D03*
X0083502Y0053137D03*
X0083502Y0052804D03*
X0085502Y0053137D03*
X0087502Y0053137D03*
X0087502Y0052804D03*
X0087502Y0053804D03*
X0087502Y0054137D03*
X0093502Y0054137D03*
X0093502Y0053804D03*
X0093502Y0053137D03*
X0093502Y0052804D03*
X0095502Y0053137D03*
X0095502Y0053804D03*
X0096832Y0053804D03*
X0096832Y0054137D03*
X0096832Y0053137D03*
X0096832Y0052804D03*
X0103832Y0052804D03*
X0103832Y0053137D03*
X0103832Y0053804D03*
X0103832Y0054137D03*
X0105502Y0053804D03*
X0105502Y0053137D03*
X0105502Y0052804D03*
X0106832Y0052804D03*
X0107832Y0053804D03*
X0113832Y0053804D03*
X0113832Y0054137D03*
X0113832Y0053137D03*
X0113832Y0052804D03*
X0115502Y0052804D03*
X0115502Y0053137D03*
X0115502Y0053804D03*
X0115502Y0054137D03*
X0117832Y0054137D03*
X0117832Y0053804D03*
X0117832Y0053137D03*
X0117832Y0052804D03*
X0123502Y0052804D03*
X0123502Y0053137D03*
X0123502Y0053804D03*
X0123502Y0054137D03*
X0125502Y0053137D03*
X0136502Y0053137D03*
X0136502Y0052804D03*
X0136832Y0052137D03*
X0137502Y0053804D03*
X0137832Y0054137D03*
X0153832Y0052137D03*
X0153832Y0051804D03*
X0154832Y0051804D03*
X0154832Y0052137D03*
X0154832Y0052804D03*
X0154832Y0053137D03*
X0155502Y0053137D03*
X0155502Y0052804D03*
X0156502Y0052804D03*
X0156502Y0053137D03*
X0158502Y0052804D03*
X0158502Y0052137D03*
X0158502Y0051804D03*
X0158502Y0051137D03*
X0159832Y0051137D03*
X0159832Y0051804D03*
X0159832Y0052137D03*
X0159832Y0052804D03*
X0158502Y0053804D03*
X0158502Y0054137D03*
X0161502Y0052137D03*
X0154832Y0051137D03*
X0173832Y0052804D03*
X0173832Y0053137D03*
X0173832Y0053804D03*
X0173832Y0054137D03*
X0175502Y0053804D03*
X0175502Y0053137D03*
X0175502Y0052804D03*
X0176502Y0053804D03*
X0176502Y0054137D03*
X0177502Y0053137D03*
X0177502Y0052804D03*
X0183832Y0052804D03*
X0183832Y0053137D03*
X0183832Y0053804D03*
X0183832Y0054137D03*
X0185502Y0053804D03*
X0185502Y0053137D03*
X0185502Y0052804D03*
X0186502Y0052804D03*
X0186502Y0053137D03*
X0186502Y0053804D03*
X0186502Y0054137D03*
X0187832Y0053137D03*
X0187832Y0052804D03*
X0193502Y0052804D03*
X0193502Y0053137D03*
X0193502Y0053804D03*
X0193502Y0054137D03*
X0196832Y0053137D03*
X0196832Y0052804D03*
X0196502Y0052137D03*
X0203502Y0052804D03*
X0203502Y0053137D03*
X0203502Y0053804D03*
X0203502Y0054137D03*
X0205502Y0053804D03*
X0205502Y0053137D03*
X0207502Y0053137D03*
X0207502Y0052804D03*
X0207502Y0053804D03*
X0207502Y0054137D03*
X0225502Y0061137D03*
X0225502Y0061804D03*
X0225502Y0062137D03*
X0225502Y0062804D03*
X0225502Y0063137D03*
X0253502Y0063804D03*
X0253502Y0064137D03*
X0253832Y0063137D03*
X0253832Y0062804D03*
X0254832Y0063137D03*
X0257832Y0062804D03*
X0257832Y0063804D03*
X0257832Y0064137D03*
X0255502Y0064804D03*
X0270832Y0066804D03*
X0271502Y0067804D03*
X0274502Y0066804D03*
X0274832Y0067137D03*
X0277832Y0067137D03*
X0277832Y0066804D03*
X0277832Y0066137D03*
X0276502Y0065804D03*
X0254502Y0080137D03*
X0254832Y0081137D03*
X0256502Y0081137D03*
X0256502Y0080804D03*
X0256502Y0081804D03*
X0256502Y0082137D03*
X0252502Y0082137D03*
X0252502Y0081804D03*
X0251832Y0082137D03*
X0251502Y0081804D03*
X0252502Y0080804D03*
X0252502Y0080137D03*
X0252502Y0083137D03*
X0225502Y0079804D03*
X0224502Y0076137D03*
X0207502Y0092137D03*
X0207832Y0092804D03*
X0207502Y0093804D03*
X0206502Y0093804D03*
X0206502Y0093137D03*
X0205502Y0093137D03*
X0205502Y0092804D03*
X0203832Y0092804D03*
X0203832Y0093137D03*
X0203832Y0093804D03*
X0203832Y0092137D03*
X0198502Y0092804D03*
X0198502Y0093137D03*
X0195502Y0093137D03*
X0195502Y0092804D03*
X0195502Y0092137D03*
X0195502Y0093804D03*
X0193832Y0093804D03*
X0187832Y0093804D03*
X0187832Y0093137D03*
X0187832Y0092804D03*
X0187832Y0092137D03*
X0185502Y0092137D03*
X0185502Y0092804D03*
X0185502Y0093137D03*
X0185502Y0093804D03*
X0183832Y0093804D03*
X0178832Y0093804D03*
X0178832Y0093137D03*
X0178502Y0092804D03*
X0177832Y0092137D03*
X0174502Y0092804D03*
X0174502Y0093137D03*
X0172832Y0093137D03*
X0172832Y0092804D03*
X0172832Y0092137D03*
X0172832Y0093804D03*
X0168502Y0093804D03*
X0168502Y0092804D03*
X0165832Y0092804D03*
X0165832Y0093137D03*
X0165832Y0093804D03*
X0165832Y0092137D03*
X0163832Y0093804D03*
X0162502Y0093804D03*
X0162502Y0093137D03*
X0162502Y0092804D03*
X0162502Y0092137D03*
X0158832Y0092804D03*
X0158832Y0093137D03*
X0158832Y0093804D03*
X0158502Y0092137D03*
X0155502Y0092804D03*
X0154502Y0092804D03*
X0154502Y0093137D03*
X0154502Y0092137D03*
X0154502Y0091804D03*
X0153502Y0092137D03*
X0153502Y0092804D03*
X0151832Y0092804D03*
X0151832Y0093137D03*
X0151832Y0093804D03*
X0147502Y0093804D03*
X0147832Y0092137D03*
X0147832Y0091804D03*
X0145502Y0091804D03*
X0145502Y0092137D03*
X0143832Y0092137D03*
X0143502Y0091804D03*
X0138832Y0092804D03*
X0138832Y0093137D03*
X0138502Y0092137D03*
X0135502Y0092804D03*
X0134502Y0092804D03*
X0134502Y0093137D03*
X0134502Y0092137D03*
X0134502Y0091804D03*
X0133502Y0092137D03*
X0133502Y0092804D03*
X0131832Y0092804D03*
X0131832Y0093137D03*
X0131832Y0093804D03*
X0127502Y0093804D03*
X0127502Y0093137D03*
X0127502Y0092804D03*
X0127502Y0092137D03*
X0126502Y0092137D03*
X0125502Y0092137D03*
X0125502Y0091804D03*
X0123832Y0091804D03*
X0123832Y0092137D03*
X0126502Y0093804D03*
X0115502Y0092137D03*
X0115502Y0091804D03*
X0113832Y0091804D03*
X0113832Y0092137D03*
X0107502Y0093137D03*
X0106502Y0092137D03*
X0105832Y0092137D03*
X0105832Y0091804D03*
X0105502Y0092804D03*
X0104502Y0093137D03*
X0104502Y0093804D03*
X0104832Y0094137D03*
X0103832Y0091804D03*
X0097502Y0092137D03*
X0097502Y0092804D03*
X0097502Y0093804D03*
X0095502Y0092137D03*
X0093832Y0092137D03*
X0093832Y0091804D03*
X0086832Y0091804D03*
X0086832Y0092137D03*
X0086832Y0092804D03*
X0086832Y0093137D03*
X0086832Y0093804D03*
X0085832Y0093137D03*
X0084502Y0093137D03*
X0084502Y0092804D03*
X0084832Y0092137D03*
X0083502Y0092804D03*
X0083502Y0093137D03*
X0077832Y0092804D03*
X0077502Y0093137D03*
X0076502Y0093137D03*
X0076502Y0093804D03*
X0075502Y0092804D03*
X0075832Y0092137D03*
X0075832Y0091804D03*
X0077502Y0092137D03*
X0074502Y0093137D03*
X0074502Y0093804D03*
X0074832Y0094137D03*
X0073832Y0092137D03*
X0073832Y0091804D03*
X0069502Y0092804D03*
X0069502Y0093137D03*
X0067832Y0093137D03*
X0067832Y0092804D03*
X0067832Y0092137D03*
X0066832Y0092804D03*
X0066832Y0093137D03*
X0066832Y0093804D03*
X0066832Y0094137D03*
X0067832Y0093804D03*
X0065832Y0093137D03*
X0062502Y0093804D03*
X0057502Y0093804D03*
X0056502Y0092804D03*
X0056832Y0091804D03*
X0054832Y0092137D03*
X0054832Y0093137D03*
X0053832Y0093137D03*
X0053832Y0093804D03*
X0055832Y0093804D03*
X0055832Y0094137D03*
X0043502Y0103804D03*
X0042832Y0104804D03*
X0042832Y0105137D03*
X0042832Y0105804D03*
X0044502Y0105804D03*
X0044502Y0105137D03*
X0044502Y0104804D03*
X0037832Y0104804D03*
X0037832Y0105137D03*
X0037832Y0105804D03*
X0037832Y0106137D03*
X0037502Y0104137D03*
X0023832Y0099137D03*
X0022502Y0098804D03*
X0022502Y0097137D03*
X0022832Y0096804D03*
X0023502Y0097137D03*
X0020832Y0097137D03*
X0020832Y0096804D03*
X0020832Y0097804D03*
X0020832Y0098804D03*
X0020832Y0099137D03*
X0021502Y0089137D03*
X0021502Y0088804D03*
X0021502Y0088137D03*
X0021502Y0087804D03*
X0021502Y0087137D03*
X0021502Y0086804D03*
X0023502Y0087137D03*
X0023832Y0087804D03*
X0024502Y0087804D03*
X0023832Y0088804D03*
X0024832Y0089137D03*
X0023832Y0078804D03*
X0020832Y0078804D03*
X0020832Y0078137D03*
X0020832Y0077137D03*
X0020832Y0076804D03*
X0022502Y0076804D03*
X0023832Y0077137D03*
X0030502Y0076137D03*
X0031832Y0076804D03*
X0031832Y0073804D03*
X0031832Y0073137D03*
X0031832Y0071137D03*
X0031832Y0070137D03*
X0029502Y0070137D03*
X0024832Y0068804D03*
X0024502Y0068137D03*
X0024502Y0067804D03*
X0023502Y0068137D03*
X0022832Y0069804D03*
X0047832Y0074137D03*
X0049502Y0073137D03*
X0049502Y0072804D03*
X0050832Y0072804D03*
X0050832Y0073137D03*
X0051502Y0073137D03*
X0051502Y0072804D03*
X0051502Y0073804D03*
X0051832Y0074137D03*
X0052502Y0073804D03*
X0052502Y0073137D03*
X0052502Y0072804D03*
X0053502Y0073804D03*
X0053502Y0074137D03*
X0050502Y0074137D03*
X0050502Y0074804D03*
X0144502Y0094137D03*
X0220832Y0104804D03*
X0220832Y0105137D03*
X0220832Y0105804D03*
X0222502Y0105804D03*
X0222502Y0105137D03*
X0222502Y0104804D03*
X0225832Y0104804D03*
X0225832Y0105137D03*
X0225832Y0105804D03*
X0225832Y0106137D03*
X0227502Y0105804D03*
X0227502Y0105137D03*
X0227502Y0104804D03*
X0227502Y0104137D03*
X0225832Y0104137D03*
X0245832Y0104137D03*
X0245832Y0103804D03*
X0245832Y0102804D03*
X0246832Y0102804D03*
X0246832Y0103137D03*
X0246832Y0103804D03*
X0246832Y0104137D03*
X0248502Y0104137D03*
X0248502Y0103804D03*
X0248502Y0103137D03*
X0248502Y0102804D03*
X0248502Y0102137D03*
X0249502Y0102137D03*
X0249502Y0102804D03*
X0249502Y0103137D03*
X0249502Y0103804D03*
X0249502Y0104137D03*
X0249502Y0104804D03*
X0249502Y0105137D03*
X0255832Y0103804D03*
X0255832Y0103137D03*
X0255832Y0102804D03*
X0256832Y0102804D03*
X0256832Y0103137D03*
X0256832Y0103804D03*
X0256832Y0104137D03*
X0258502Y0104137D03*
X0258502Y0103804D03*
X0258502Y0103137D03*
X0258502Y0102804D03*
X0258502Y0102137D03*
X0260832Y0103804D03*
X0259502Y0105137D03*
X0268832Y0104137D03*
X0268832Y0103804D03*
X0271832Y0103804D03*
X0271832Y0103137D03*
X0273502Y0103137D03*
X0273502Y0102804D03*
X0273502Y0103804D03*
X0273502Y0104137D03*
X0275502Y0104137D03*
X0276832Y0103137D03*
X0276832Y0102804D03*
X0283502Y0100137D03*
X0283502Y0099804D03*
X0284502Y0099804D03*
X0284832Y0100804D03*
X0285832Y0100804D03*
X0285832Y0100137D03*
X0285832Y0099804D03*
X0285832Y0099137D03*
X0285832Y0098804D03*
X0288502Y0098804D03*
X0288502Y0099137D03*
X0288502Y0099804D03*
X0288502Y0100137D03*
X0311832Y0094137D03*
X0311832Y0093804D03*
X0312502Y0093137D03*
X0312502Y0092804D03*
X0313832Y0092137D03*
X0315502Y0092137D03*
X0315502Y0091804D03*
X0315832Y0092804D03*
X0315832Y0093137D03*
X0316502Y0093137D03*
X0316502Y0092804D03*
X0316832Y0091804D03*
X0318502Y0092804D03*
X0318502Y0093137D03*
X0317502Y0093804D03*
X0314832Y0093804D03*
X0313832Y0088137D03*
X0313832Y0087804D03*
X0312832Y0088137D03*
X0312832Y0087137D03*
D15*
X0314002Y0088470D03*
X0317332Y0088470D03*
X0317002Y0092470D03*
X0316332Y0093470D03*
X0314002Y0093470D03*
X0314002Y0092470D03*
X0320002Y0093470D03*
X0311332Y0094470D03*
X0287332Y0100470D03*
X0283332Y0100470D03*
X0262332Y0103470D03*
X0258332Y0102470D03*
X0254332Y0102470D03*
X0248332Y0102470D03*
X0247002Y0102470D03*
X0246002Y0102470D03*
X0244332Y0102470D03*
X0244332Y0104470D03*
X0194002Y0093470D03*
X0184002Y0093470D03*
X0164002Y0092470D03*
X0156002Y0092470D03*
X0255332Y0064470D03*
X0256332Y0064470D03*
X0256332Y0063470D03*
X0256332Y0062470D03*
X0277002Y0065470D03*
X0279002Y0065470D03*
X0279002Y0066470D03*
X0279002Y0067470D03*
X0259332Y0080470D03*
X0259332Y0081470D03*
X0259332Y0082470D03*
X0258002Y0080470D03*
X0207002Y0053470D03*
X0206332Y0052470D03*
X0205002Y0052470D03*
X0195002Y0052470D03*
X0177332Y0053470D03*
X0175002Y0052470D03*
X0157002Y0053470D03*
X0150332Y0053470D03*
X0150332Y0052470D03*
X0150332Y0051470D03*
X0137002Y0052470D03*
X0135002Y0053470D03*
X0125002Y0052470D03*
X0115332Y0052470D03*
X0105332Y0052470D03*
X0085002Y0052470D03*
X0075002Y0052470D03*
X0069002Y0052470D03*
X0066332Y0052470D03*
X0064002Y0052470D03*
X0065002Y0054470D03*
X0022002Y0067470D03*
X0029332Y0070470D03*
X0049332Y0072470D03*
X0051002Y0072470D03*
X0053002Y0072470D03*
X0053332Y0073470D03*
X0052002Y0074470D03*
X0024332Y0088470D03*
X0025332Y0097470D03*
X0022332Y0098470D03*
X0036332Y0104470D03*
X0020332Y0048470D03*
X0020332Y0047470D03*
D16*
X0022502Y0047470D03*
X0024502Y0048470D03*
X0025502Y0048470D03*
X0025502Y0047470D03*
X0024832Y0047470D03*
X0026832Y0047470D03*
X0026832Y0048470D03*
X0025502Y0049470D03*
X0028832Y0048470D03*
X0028832Y0047470D03*
X0054502Y0052470D03*
X0056832Y0052470D03*
X0062502Y0052470D03*
X0064832Y0052470D03*
X0064832Y0053470D03*
X0065832Y0053470D03*
X0066502Y0053470D03*
X0067502Y0053470D03*
X0067502Y0052470D03*
X0066502Y0054470D03*
X0069502Y0053470D03*
X0073832Y0053470D03*
X0074832Y0053470D03*
X0075832Y0054470D03*
X0077502Y0053470D03*
X0077832Y0054470D03*
X0083502Y0053470D03*
X0083502Y0052470D03*
X0085502Y0053470D03*
X0086502Y0052470D03*
X0087502Y0052470D03*
X0087502Y0053470D03*
X0093502Y0053470D03*
X0093502Y0052470D03*
X0095502Y0053470D03*
X0096832Y0053470D03*
X0096832Y0052470D03*
X0103832Y0052470D03*
X0103832Y0053470D03*
X0105502Y0053470D03*
X0106502Y0052470D03*
X0107502Y0053470D03*
X0113832Y0053470D03*
X0113832Y0052470D03*
X0115502Y0053470D03*
X0123502Y0053470D03*
X0123502Y0052470D03*
X0125502Y0053470D03*
X0126502Y0053470D03*
X0133832Y0052470D03*
X0135832Y0054470D03*
X0136502Y0053470D03*
X0137502Y0053470D03*
X0137832Y0054470D03*
X0152502Y0051470D03*
X0153502Y0051470D03*
X0153832Y0052470D03*
X0154832Y0052470D03*
X0154832Y0051470D03*
X0155832Y0052470D03*
X0156502Y0052470D03*
X0155502Y0053470D03*
X0154832Y0053470D03*
X0158502Y0053470D03*
X0158502Y0052470D03*
X0158502Y0051470D03*
X0159832Y0051470D03*
X0160832Y0051470D03*
X0159832Y0052470D03*
X0161832Y0052470D03*
X0173832Y0052470D03*
X0173832Y0053470D03*
X0175502Y0053470D03*
X0176502Y0053470D03*
X0177502Y0052470D03*
X0183832Y0052470D03*
X0183832Y0053470D03*
X0185502Y0053470D03*
X0186502Y0052470D03*
X0187502Y0053470D03*
X0193502Y0053470D03*
X0193502Y0052470D03*
X0196502Y0052470D03*
X0203502Y0052470D03*
X0203502Y0053470D03*
X0205502Y0053470D03*
X0207502Y0052470D03*
X0225502Y0061470D03*
X0225502Y0063470D03*
X0254832Y0063470D03*
X0257832Y0062470D03*
X0271502Y0067470D03*
X0274502Y0066470D03*
X0274832Y0067470D03*
X0277832Y0067470D03*
X0277832Y0066470D03*
X0277832Y0065470D03*
X0254502Y0080470D03*
X0254832Y0081470D03*
X0256502Y0081470D03*
X0252502Y0081470D03*
X0252502Y0080470D03*
X0252502Y0082470D03*
X0251832Y0082470D03*
X0224502Y0076470D03*
X0207502Y0092470D03*
X0207832Y0093470D03*
X0206502Y0093470D03*
X0205502Y0093470D03*
X0205502Y0092470D03*
X0203832Y0092470D03*
X0203832Y0093470D03*
X0198502Y0093470D03*
X0198502Y0092470D03*
X0195502Y0092470D03*
X0195502Y0093470D03*
X0193832Y0092470D03*
X0187832Y0092470D03*
X0187832Y0093470D03*
X0185502Y0093470D03*
X0185502Y0092470D03*
X0183832Y0092470D03*
X0178832Y0093470D03*
X0174502Y0093470D03*
X0174502Y0092470D03*
X0172832Y0092470D03*
X0172832Y0093470D03*
X0168502Y0093470D03*
X0168502Y0092470D03*
X0165832Y0092470D03*
X0165832Y0093470D03*
X0162502Y0093470D03*
X0162502Y0092470D03*
X0158832Y0092470D03*
X0158832Y0093470D03*
X0154502Y0093470D03*
X0154502Y0092470D03*
X0153502Y0092470D03*
X0151832Y0092470D03*
X0151832Y0093470D03*
X0147502Y0093470D03*
X0147502Y0092470D03*
X0144832Y0093470D03*
X0138832Y0093470D03*
X0138832Y0092470D03*
X0135502Y0092470D03*
X0134502Y0092470D03*
X0133502Y0092470D03*
X0134502Y0093470D03*
X0131832Y0093470D03*
X0131832Y0092470D03*
X0127502Y0092470D03*
X0127502Y0093470D03*
X0107832Y0093470D03*
X0106832Y0092470D03*
X0104502Y0093470D03*
X0097502Y0093470D03*
X0097502Y0092470D03*
X0086832Y0093470D03*
X0084502Y0093470D03*
X0083832Y0093470D03*
X0077832Y0092470D03*
X0076502Y0093470D03*
X0074502Y0093470D03*
X0069502Y0093470D03*
X0069502Y0092470D03*
X0067832Y0092470D03*
X0066832Y0092470D03*
X0066832Y0093470D03*
X0065832Y0093470D03*
X0067832Y0093470D03*
X0062502Y0093470D03*
X0062502Y0092470D03*
X0057502Y0093470D03*
X0056502Y0092470D03*
X0053832Y0093470D03*
X0024832Y0087470D03*
X0021502Y0087470D03*
X0021502Y0088470D03*
X0023502Y0089470D03*
X0022502Y0097470D03*
X0023832Y0098470D03*
X0020832Y0098470D03*
X0020832Y0097470D03*
X0037832Y0104470D03*
X0037832Y0105470D03*
X0036502Y0106470D03*
X0040502Y0106470D03*
X0042832Y0105470D03*
X0042832Y0104470D03*
X0044502Y0104470D03*
X0044502Y0105470D03*
X0024832Y0078470D03*
X0024832Y0077470D03*
X0025502Y0076470D03*
X0023502Y0076470D03*
X0020832Y0076470D03*
X0020832Y0077470D03*
X0020832Y0078470D03*
X0031832Y0071470D03*
X0031832Y0070470D03*
X0024832Y0068470D03*
X0023502Y0068470D03*
X0047832Y0072470D03*
X0050832Y0073470D03*
X0051502Y0073470D03*
X0052502Y0073470D03*
X0053502Y0074470D03*
X0050502Y0074470D03*
X0047832Y0074470D03*
X0220832Y0104470D03*
X0220832Y0105470D03*
X0222502Y0105470D03*
X0222502Y0104470D03*
X0225832Y0104470D03*
X0225832Y0105470D03*
X0227502Y0105470D03*
X0227502Y0104470D03*
X0245832Y0104470D03*
X0246832Y0103470D03*
X0248502Y0103470D03*
X0249502Y0103470D03*
X0249502Y0102470D03*
X0255832Y0103470D03*
X0256832Y0103470D03*
X0258502Y0103470D03*
X0260832Y0102470D03*
X0268502Y0103470D03*
X0268832Y0104470D03*
X0271502Y0104470D03*
X0271832Y0103470D03*
X0271502Y0102470D03*
X0273502Y0102470D03*
X0273502Y0103470D03*
X0273502Y0104470D03*
X0275502Y0104470D03*
X0276832Y0103470D03*
X0276832Y0102470D03*
X0282832Y0101470D03*
X0284832Y0100470D03*
X0285832Y0100470D03*
X0285832Y0099470D03*
X0284502Y0099470D03*
X0288502Y0099470D03*
X0288502Y0100470D03*
X0285832Y0101470D03*
X0312502Y0093470D03*
X0312502Y0092470D03*
X0315832Y0092470D03*
X0317502Y0093470D03*
X0318502Y0093470D03*
X0318502Y0092470D03*
X0316832Y0087470D03*
X0313832Y0087470D03*
X0312832Y0087470D03*
D17*
X0312667Y0088470D03*
X0311667Y0093470D03*
X0283667Y0099470D03*
X0267667Y0102470D03*
X0260667Y0103470D03*
X0259667Y0103470D03*
X0259667Y0102470D03*
X0259667Y0104470D03*
X0255667Y0102470D03*
X0253667Y0104470D03*
X0256667Y0080470D03*
X0257667Y0064470D03*
X0253667Y0063470D03*
X0187667Y0052470D03*
X0186667Y0053470D03*
X0117667Y0052470D03*
X0096667Y0054470D03*
X0076667Y0052470D03*
X0023667Y0049470D03*
X0023667Y0048470D03*
X0023667Y0047470D03*
X0021667Y0068470D03*
X0020667Y0068470D03*
X0020667Y0069470D03*
X0030667Y0072470D03*
X0031667Y0076470D03*
X0022667Y0076470D03*
X0023667Y0087470D03*
X0045667Y0104470D03*
X0045667Y0106470D03*
X0037667Y0106470D03*
D18*
X0036167Y0105804D03*
X0036167Y0105137D03*
X0036167Y0104804D03*
X0037167Y0103804D03*
X0039167Y0104137D03*
X0041167Y0104804D03*
X0041167Y0105137D03*
X0041167Y0105804D03*
X0041167Y0106137D03*
X0043167Y0104137D03*
X0022167Y0097804D03*
X0023167Y0086804D03*
X0025167Y0086804D03*
X0025167Y0079137D03*
X0022167Y0078804D03*
X0022167Y0078137D03*
X0025167Y0076804D03*
X0030167Y0076804D03*
X0029167Y0073804D03*
X0025167Y0069804D03*
X0023167Y0069137D03*
X0022167Y0067804D03*
X0051167Y0072137D03*
X0053167Y0072804D03*
X0053167Y0073137D03*
X0065167Y0091804D03*
X0065167Y0092137D03*
X0065167Y0092804D03*
X0065167Y0093137D03*
X0064167Y0092804D03*
X0064167Y0092137D03*
X0066167Y0092804D03*
X0062167Y0093137D03*
X0057167Y0093137D03*
X0057167Y0092804D03*
X0056167Y0093137D03*
X0055167Y0092804D03*
X0074167Y0092804D03*
X0075167Y0093137D03*
X0075167Y0093804D03*
X0083167Y0092137D03*
X0083167Y0091804D03*
X0085167Y0091804D03*
X0094167Y0092804D03*
X0094167Y0093137D03*
X0095167Y0093137D03*
X0095167Y0092804D03*
X0096167Y0092137D03*
X0104167Y0092137D03*
X0104167Y0092804D03*
X0105167Y0093137D03*
X0105167Y0093804D03*
X0107167Y0092804D03*
X0114167Y0092804D03*
X0114167Y0093137D03*
X0115167Y0093137D03*
X0115167Y0092804D03*
X0117167Y0092804D03*
X0117167Y0093137D03*
X0117167Y0093804D03*
X0117167Y0092137D03*
X0124167Y0092804D03*
X0124167Y0093137D03*
X0125167Y0093137D03*
X0125167Y0092804D03*
X0126167Y0092804D03*
X0126167Y0093137D03*
X0135167Y0093137D03*
X0136167Y0093137D03*
X0136167Y0092804D03*
X0136167Y0093804D03*
X0136167Y0094137D03*
X0137167Y0093804D03*
X0137167Y0093137D03*
X0137167Y0092804D03*
X0137167Y0092137D03*
X0136167Y0091804D03*
X0144167Y0093137D03*
X0145167Y0093137D03*
X0145167Y0092804D03*
X0146167Y0092804D03*
X0146167Y0093137D03*
X0146167Y0093804D03*
X0147167Y0092804D03*
X0146167Y0092137D03*
X0146167Y0091804D03*
X0152167Y0092137D03*
X0155167Y0093137D03*
X0156167Y0093137D03*
X0156167Y0092804D03*
X0156167Y0093804D03*
X0156167Y0094137D03*
X0157167Y0093804D03*
X0157167Y0093137D03*
X0157167Y0092804D03*
X0157167Y0092137D03*
X0156167Y0091804D03*
X0164167Y0092804D03*
X0164167Y0093137D03*
X0176167Y0093137D03*
X0176167Y0092804D03*
X0176167Y0092137D03*
X0176167Y0093804D03*
X0182167Y0093804D03*
X0182167Y0093137D03*
X0182167Y0092804D03*
X0182167Y0092137D03*
X0184167Y0092804D03*
X0184167Y0093137D03*
X0192167Y0093137D03*
X0192167Y0092804D03*
X0192167Y0092137D03*
X0192167Y0093804D03*
X0194167Y0093137D03*
X0194167Y0092804D03*
X0197167Y0092804D03*
X0197167Y0093137D03*
X0197167Y0093804D03*
X0198167Y0093804D03*
X0198167Y0092137D03*
X0197167Y0092137D03*
X0205167Y0092137D03*
X0229167Y0103804D03*
X0229167Y0104804D03*
X0229167Y0105137D03*
X0229167Y0105804D03*
X0230167Y0105804D03*
X0230167Y0106137D03*
X0230167Y0104804D03*
X0230167Y0104137D03*
X0230167Y0103804D03*
X0246167Y0102137D03*
X0252167Y0102137D03*
X0252167Y0102804D03*
X0252167Y0103137D03*
X0252167Y0103804D03*
X0252167Y0104137D03*
X0262167Y0103804D03*
X0270167Y0103804D03*
X0270167Y0104137D03*
X0270167Y0103137D03*
X0270167Y0102804D03*
X0283167Y0101137D03*
X0283167Y0100804D03*
X0287167Y0100804D03*
X0287167Y0100137D03*
X0287167Y0099804D03*
X0287167Y0099137D03*
X0287167Y0098804D03*
X0284835Y0094137D03*
X0284835Y0093804D03*
X0284835Y0093137D03*
X0284835Y0092804D03*
X0284835Y0092137D03*
X0310167Y0092137D03*
X0310167Y0091804D03*
X0310167Y0092804D03*
X0310167Y0093804D03*
X0310167Y0094137D03*
X0314167Y0093137D03*
X0314167Y0092804D03*
X0315167Y0092804D03*
X0315167Y0093137D03*
X0317167Y0092804D03*
X0320167Y0093137D03*
X0320167Y0092137D03*
X0321167Y0092137D03*
X0321167Y0091804D03*
X0321167Y0092804D03*
X0321167Y0093137D03*
X0316167Y0089137D03*
X0316167Y0088804D03*
X0316167Y0088137D03*
X0316167Y0087137D03*
X0316167Y0086804D03*
X0311167Y0087137D03*
X0310167Y0087137D03*
X0310167Y0086804D03*
X0310167Y0087804D03*
X0310167Y0088137D03*
X0310167Y0088804D03*
X0310167Y0089137D03*
X0259167Y0080137D03*
X0258167Y0080137D03*
X0258167Y0080804D03*
X0258167Y0081137D03*
X0258167Y0081804D03*
X0258167Y0082137D03*
X0255167Y0082137D03*
X0227167Y0077137D03*
X0227167Y0076137D03*
X0225167Y0080137D03*
X0253167Y0064804D03*
X0255167Y0064137D03*
X0255167Y0063804D03*
X0258167Y0062137D03*
X0272167Y0065804D03*
X0272167Y0066137D03*
X0272167Y0066804D03*
X0272167Y0067137D03*
X0272167Y0067804D03*
X0271167Y0067137D03*
X0275167Y0068137D03*
X0276167Y0067137D03*
X0276167Y0066804D03*
X0276167Y0066137D03*
X0274167Y0065804D03*
X0206167Y0054137D03*
X0206167Y0053804D03*
X0206167Y0053137D03*
X0206167Y0052804D03*
X0205167Y0054137D03*
X0197167Y0054137D03*
X0197167Y0053804D03*
X0195167Y0053804D03*
X0195167Y0053137D03*
X0195167Y0052804D03*
X0175167Y0054137D03*
X0162167Y0052804D03*
X0161167Y0051804D03*
X0157167Y0051804D03*
X0157167Y0052137D03*
X0157167Y0052804D03*
X0157167Y0053137D03*
X0157167Y0054137D03*
X0152167Y0053137D03*
X0152167Y0052137D03*
X0152167Y0051804D03*
X0157167Y0051137D03*
X0137167Y0052804D03*
X0137167Y0053137D03*
X0136167Y0053804D03*
X0136167Y0054137D03*
X0135167Y0053137D03*
X0135167Y0052804D03*
X0134167Y0053804D03*
X0134167Y0054137D03*
X0127167Y0053804D03*
X0127167Y0053137D03*
X0126167Y0053137D03*
X0125167Y0054137D03*
X0127167Y0052137D03*
X0107167Y0053137D03*
X0095167Y0054137D03*
X0086167Y0054137D03*
X0086167Y0053804D03*
X0086167Y0053137D03*
X0086167Y0052804D03*
X0085167Y0052804D03*
X0085167Y0054137D03*
X0077167Y0053137D03*
X0077167Y0052804D03*
X0076167Y0053804D03*
X0076167Y0054137D03*
X0075167Y0053137D03*
X0075167Y0052804D03*
X0069167Y0052804D03*
X0069167Y0053804D03*
X0069167Y0054137D03*
X0064167Y0052804D03*
X0062167Y0052804D03*
X0062167Y0053137D03*
X0062167Y0053804D03*
X0058167Y0053804D03*
X0058167Y0054137D03*
X0058167Y0053137D03*
X0058167Y0052804D03*
X0058167Y0052137D03*
X0054167Y0053137D03*
X0053167Y0053137D03*
X0053167Y0052804D03*
X0053167Y0052137D03*
X0053167Y0053804D03*
X0053167Y0054137D03*
X0020167Y0048137D03*
X0020167Y0047804D03*
D19*
X0023837Y0048804D03*
X0023837Y0049137D03*
X0056167Y0052137D03*
X0063167Y0052137D03*
X0067837Y0052137D03*
X0083837Y0052137D03*
X0114167Y0052137D03*
X0116837Y0052137D03*
X0134497Y0052137D03*
X0153167Y0054137D03*
X0174167Y0052137D03*
X0176837Y0052137D03*
X0184167Y0052137D03*
X0204167Y0052137D03*
X0153167Y0076137D03*
X0147497Y0077137D03*
X0126497Y0077137D03*
X0126497Y0076804D03*
X0126167Y0076137D03*
X0125837Y0075137D03*
X0122167Y0074804D03*
X0121837Y0075804D03*
X0122497Y0073804D03*
X0122837Y0073137D03*
X0122837Y0072804D03*
X0123167Y0072137D03*
X0124837Y0072804D03*
X0106837Y0076137D03*
X0103837Y0073804D03*
X0096837Y0091804D03*
X0076837Y0091804D03*
X0044167Y0104137D03*
X0037167Y0106804D03*
X0116837Y0094137D03*
X0132837Y0091804D03*
X0152837Y0091804D03*
X0157497Y0091804D03*
X0165497Y0094137D03*
X0167837Y0093137D03*
X0175837Y0094137D03*
X0187497Y0094137D03*
X0192497Y0091804D03*
X0195167Y0094137D03*
X0197837Y0094137D03*
X0206837Y0092804D03*
X0206837Y0091804D03*
X0228167Y0103804D03*
X0247497Y0102137D03*
X0254837Y0103137D03*
X0257497Y0102137D03*
X0261497Y0102137D03*
X0264837Y0103137D03*
X0261497Y0104137D03*
X0273167Y0104804D03*
X0314837Y0088804D03*
X0316497Y0087804D03*
X0319497Y0091804D03*
X0257167Y0080137D03*
X0048167Y0073804D03*
D20*
X0074832Y0092470D03*
X0104832Y0092470D03*
X0144502Y0092470D03*
X0105832Y0078470D03*
X0140502Y0075470D03*
X0140832Y0076470D03*
X0140502Y0071470D03*
X0165832Y0070470D03*
X0170502Y0070470D03*
X0171502Y0071470D03*
X0172502Y0072470D03*
X0173502Y0073470D03*
X0174502Y0075470D03*
X0169832Y0077470D03*
X0179502Y0074470D03*
X0182832Y0074470D03*
X0184502Y0054470D03*
X0196832Y0054470D03*
X0114502Y0054470D03*
X0104502Y0054470D03*
X0027502Y0049470D03*
X0021502Y0049470D03*
X0021502Y0099470D03*
X0024502Y0099470D03*
X0230832Y0106470D03*
X0244832Y0103470D03*
X0252832Y0103470D03*
D21*
X0252167Y0102470D03*
X0252167Y0104470D03*
X0257167Y0102470D03*
X0262167Y0102470D03*
X0270167Y0102470D03*
X0270167Y0103470D03*
X0270167Y0104470D03*
X0285167Y0101470D03*
X0287167Y0099470D03*
X0284835Y0094470D03*
X0284835Y0092470D03*
X0310167Y0092470D03*
X0310167Y0093470D03*
X0310167Y0094470D03*
X0315167Y0093470D03*
X0315167Y0092470D03*
X0321167Y0092470D03*
X0321167Y0093470D03*
X0316167Y0089470D03*
X0316167Y0088470D03*
X0316167Y0087470D03*
X0311167Y0087470D03*
X0310167Y0087470D03*
X0310167Y0086470D03*
X0310167Y0088470D03*
X0310167Y0089470D03*
X0258167Y0081470D03*
X0255167Y0082470D03*
X0251167Y0081470D03*
X0227167Y0080470D03*
X0227167Y0077470D03*
X0227167Y0076470D03*
X0253167Y0064470D03*
X0272167Y0065470D03*
X0274167Y0065470D03*
X0276167Y0066470D03*
X0276167Y0067470D03*
X0272167Y0067470D03*
X0272167Y0068470D03*
X0197167Y0053470D03*
X0195167Y0053470D03*
X0185167Y0052470D03*
X0176167Y0052470D03*
X0157167Y0052470D03*
X0157167Y0051470D03*
X0152167Y0052470D03*
X0152167Y0053470D03*
X0135167Y0052470D03*
X0127167Y0052470D03*
X0127167Y0053470D03*
X0127167Y0054470D03*
X0095167Y0052470D03*
X0086167Y0053470D03*
X0076167Y0053470D03*
X0062167Y0053470D03*
X0058167Y0053470D03*
X0058167Y0052470D03*
X0054167Y0053470D03*
X0053167Y0053470D03*
X0053167Y0052470D03*
X0025167Y0069470D03*
X0023167Y0069470D03*
X0029167Y0073470D03*
X0032167Y0073470D03*
X0030167Y0076470D03*
X0024167Y0077470D03*
X0024167Y0078470D03*
X0022167Y0078470D03*
X0022167Y0077470D03*
X0025167Y0089470D03*
X0055167Y0092470D03*
X0056167Y0093470D03*
X0057167Y0092470D03*
X0064167Y0092470D03*
X0065167Y0092470D03*
X0066167Y0092470D03*
X0065167Y0093470D03*
X0075167Y0093470D03*
X0086167Y0093470D03*
X0095167Y0093470D03*
X0105167Y0093470D03*
X0115167Y0093470D03*
X0117167Y0093470D03*
X0117167Y0092470D03*
X0124167Y0093470D03*
X0125167Y0093470D03*
X0126167Y0093470D03*
X0126167Y0092470D03*
X0135167Y0093470D03*
X0136167Y0093470D03*
X0136167Y0092470D03*
X0137167Y0092470D03*
X0137167Y0093470D03*
X0144167Y0093470D03*
X0146167Y0093470D03*
X0146167Y0092470D03*
X0155167Y0093470D03*
X0156167Y0093470D03*
X0157167Y0093470D03*
X0157167Y0092470D03*
X0164167Y0093470D03*
X0176167Y0093470D03*
X0176167Y0092470D03*
X0178167Y0092470D03*
X0182167Y0092470D03*
X0182167Y0093470D03*
X0192167Y0093470D03*
X0192167Y0092470D03*
X0197167Y0092470D03*
X0197167Y0093470D03*
X0229167Y0104470D03*
X0230167Y0104470D03*
X0230167Y0105470D03*
X0229167Y0105470D03*
X0041167Y0105470D03*
X0041167Y0104470D03*
X0041167Y0106470D03*
X0036167Y0105470D03*
D22*
X0054332Y0094137D03*
X0068332Y0094137D03*
X0077002Y0094137D03*
X0097002Y0094137D03*
X0107002Y0094137D03*
X0117002Y0091804D03*
X0127002Y0094137D03*
X0163002Y0094137D03*
X0173332Y0094137D03*
X0178002Y0094137D03*
X0173332Y0091804D03*
X0207002Y0094137D03*
X0255002Y0104137D03*
X0271002Y0104804D03*
X0276002Y0103804D03*
X0276002Y0102137D03*
X0271002Y0102137D03*
X0312002Y0088804D03*
X0194002Y0052137D03*
X0150002Y0053804D03*
X0124002Y0052137D03*
X0104332Y0052137D03*
X0097002Y0052137D03*
X0094002Y0052137D03*
X0102002Y0068804D03*
X0102002Y0069137D03*
X0102332Y0069804D03*
X0102332Y0070137D03*
X0109002Y0070137D03*
X0109332Y0069804D03*
X0109332Y0069137D03*
X0120002Y0069137D03*
X0120002Y0068804D03*
X0120002Y0069804D03*
X0120002Y0070137D03*
X0120002Y0070804D03*
X0120002Y0071137D03*
X0120002Y0071804D03*
X0120002Y0072137D03*
X0120002Y0072804D03*
X0120002Y0073137D03*
X0120002Y0073804D03*
X0120002Y0074137D03*
X0120002Y0074804D03*
X0120002Y0075137D03*
X0120002Y0075804D03*
X0120002Y0076137D03*
X0122002Y0075137D03*
X0122332Y0074137D03*
X0125002Y0073137D03*
X0125332Y0073804D03*
X0125332Y0074137D03*
X0126002Y0075804D03*
X0128002Y0075804D03*
X0128002Y0076137D03*
X0128002Y0076804D03*
X0128002Y0077137D03*
X0128002Y0075137D03*
X0128002Y0074804D03*
X0128002Y0074137D03*
X0128002Y0073804D03*
X0128002Y0073137D03*
X0128002Y0072804D03*
X0128002Y0072137D03*
X0128002Y0071804D03*
X0128002Y0071137D03*
X0128002Y0070804D03*
X0128002Y0070137D03*
X0128002Y0069804D03*
X0128002Y0069137D03*
X0128002Y0068804D03*
X0132002Y0069804D03*
X0132002Y0070137D03*
X0132002Y0070804D03*
X0132002Y0071137D03*
X0132002Y0071804D03*
X0132002Y0072137D03*
X0132002Y0072804D03*
X0132002Y0073137D03*
X0132002Y0074804D03*
X0132002Y0075137D03*
X0132002Y0075804D03*
X0132002Y0076137D03*
X0132002Y0076804D03*
X0132002Y0077137D03*
X0140332Y0075137D03*
X0140332Y0074804D03*
X0140332Y0074137D03*
X0140332Y0072804D03*
X0140332Y0072137D03*
X0140332Y0071804D03*
X0150332Y0068804D03*
X0151002Y0070137D03*
X0157332Y0070804D03*
X0158002Y0069137D03*
X0158002Y0068804D03*
X0166002Y0070804D03*
X0166002Y0071137D03*
X0166002Y0071804D03*
X0166002Y0072137D03*
X0165332Y0074804D03*
X0174332Y0074804D03*
X0174332Y0075137D03*
X0174332Y0076804D03*
X0179002Y0074804D03*
X0183332Y0075137D03*
X0183332Y0077137D03*
X0183332Y0072804D03*
X0184002Y0071137D03*
X0178332Y0071137D03*
X0178332Y0070804D03*
X0178332Y0071804D03*
X0178332Y0072137D03*
X0156332Y0073137D03*
X0156002Y0073804D03*
X0156002Y0074137D03*
X0155332Y0075804D03*
X0155332Y0076137D03*
X0155002Y0076804D03*
X0153332Y0076804D03*
X0153002Y0075804D03*
X0152332Y0074137D03*
X0152332Y0073804D03*
X0152002Y0073137D03*
X0152002Y0072804D03*
X0108002Y0072804D03*
X0108002Y0073137D03*
X0107332Y0074804D03*
X0107332Y0075137D03*
X0107002Y0075804D03*
X0105002Y0076804D03*
X0104332Y0075137D03*
X0104332Y0074804D03*
X0104002Y0074137D03*
X0103332Y0072804D03*
X0021332Y0077804D03*
X0021002Y0068804D03*
D23*
X0021167Y0069804D03*
X0107167Y0052137D03*
X0141167Y0070137D03*
X0140167Y0073137D03*
X0140167Y0073804D03*
X0141167Y0076804D03*
X0154167Y0078137D03*
X0151167Y0070804D03*
X0170167Y0070137D03*
X0171167Y0071137D03*
X0172167Y0072137D03*
X0173167Y0073137D03*
X0174167Y0077137D03*
X0183167Y0074804D03*
X0178167Y0091804D03*
X0176167Y0091804D03*
X0107167Y0091804D03*
X0041167Y0104137D03*
X0159167Y0053137D03*
X0255167Y0102137D03*
X0268167Y0102137D03*
X0268167Y0104804D03*
X0276167Y0104804D03*
X0313167Y0093804D03*
X0319167Y0093804D03*
X0312167Y0087804D03*
X0312167Y0086804D03*
D24*
X0310832Y0093137D03*
X0259832Y0083137D03*
X0259832Y0081804D03*
X0279502Y0067137D03*
X0256832Y0064804D03*
X0256832Y0063137D03*
X0183832Y0070804D03*
X0183832Y0071804D03*
X0182832Y0073137D03*
X0178832Y0072804D03*
X0173832Y0074137D03*
X0172832Y0072804D03*
X0171832Y0071804D03*
X0170832Y0070804D03*
X0169832Y0069804D03*
X0178502Y0070137D03*
X0178832Y0069804D03*
X0183502Y0069804D03*
X0174502Y0075804D03*
X0174502Y0076137D03*
X0178832Y0077137D03*
X0183502Y0076804D03*
X0165502Y0077137D03*
X0165502Y0072804D03*
X0147502Y0069804D03*
X0140832Y0070804D03*
X0140832Y0076137D03*
X0123832Y0070804D03*
X0108832Y0070804D03*
X0126832Y0052804D03*
X0152832Y0052804D03*
X0048502Y0072137D03*
X0021502Y0079137D03*
X0063502Y0094137D03*
X0021502Y0098137D03*
X0132832Y0094137D03*
X0137832Y0094137D03*
X0152832Y0094137D03*
X0157832Y0094137D03*
X0182832Y0094137D03*
X0187832Y0091804D03*
X0192832Y0094137D03*
X0204502Y0094137D03*
X0225832Y0103804D03*
X0230832Y0105137D03*
X0244832Y0104804D03*
X0252832Y0104804D03*
D25*
X0225332Y0106470D03*
X0226002Y0079470D03*
X0184002Y0071470D03*
X0178332Y0071470D03*
X0178332Y0070470D03*
X0166002Y0071470D03*
X0157332Y0070470D03*
X0156332Y0073470D03*
X0156002Y0074470D03*
X0153002Y0075470D03*
X0153332Y0076470D03*
X0161002Y0077470D03*
X0152002Y0073470D03*
X0151002Y0070470D03*
X0141002Y0070470D03*
X0140332Y0072470D03*
X0140332Y0074470D03*
X0132002Y0074470D03*
X0132002Y0075470D03*
X0132002Y0076470D03*
X0128002Y0076470D03*
X0128002Y0075470D03*
X0128002Y0074470D03*
X0128002Y0073470D03*
X0128002Y0072470D03*
X0128002Y0071470D03*
X0128002Y0070470D03*
X0128002Y0069470D03*
X0124002Y0070470D03*
X0123002Y0072470D03*
X0120002Y0072470D03*
X0120002Y0071470D03*
X0120002Y0070470D03*
X0120002Y0069470D03*
X0120002Y0073470D03*
X0120002Y0074470D03*
X0120002Y0075470D03*
X0120002Y0076470D03*
X0122332Y0074470D03*
X0126332Y0076470D03*
X0132002Y0072470D03*
X0132002Y0071470D03*
X0132002Y0070470D03*
X0109332Y0069470D03*
X0109002Y0070470D03*
X0108332Y0072470D03*
X0107332Y0074470D03*
X0107002Y0075470D03*
X0104332Y0075470D03*
X0104002Y0074470D03*
X0103332Y0072470D03*
X0102332Y0069470D03*
X0107002Y0054470D03*
X0117002Y0054470D03*
X0074332Y0054470D03*
X0056002Y0053470D03*
X0049002Y0073470D03*
X0174332Y0076470D03*
X0174332Y0054470D03*
X0177002Y0054470D03*
X0194002Y0054470D03*
X0207002Y0054470D03*
D26*
X0187167Y0054470D03*
X0125497Y0074470D03*
X0125167Y0073470D03*
X0124837Y0072470D03*
X0125837Y0075470D03*
X0121837Y0075470D03*
X0121497Y0076470D03*
X0104837Y0076470D03*
X0155167Y0076470D03*
X0117167Y0053470D03*
X0086837Y0054470D03*
X0024167Y0067470D03*
X0254167Y0062470D03*
X0257497Y0063470D03*
D27*
X0183667Y0070470D03*
X0183667Y0072470D03*
X0178667Y0072470D03*
X0178667Y0075470D03*
X0178667Y0076470D03*
X0183667Y0076470D03*
X0183667Y0075470D03*
X0165667Y0075470D03*
X0165667Y0076470D03*
X0155667Y0075470D03*
X0152667Y0074470D03*
X0151667Y0072470D03*
X0147667Y0072470D03*
X0147667Y0071470D03*
X0147667Y0070470D03*
X0150667Y0069470D03*
X0156667Y0072470D03*
X0157667Y0069470D03*
X0165667Y0072470D03*
X0122667Y0073470D03*
X0113667Y0073470D03*
X0113667Y0072470D03*
X0113667Y0071470D03*
X0113667Y0070470D03*
X0113667Y0069470D03*
X0107667Y0073470D03*
X0103667Y0073470D03*
X0102667Y0070470D03*
X0113667Y0074470D03*
X0113667Y0075470D03*
X0113667Y0076470D03*
X0106667Y0076470D03*
X0134667Y0054470D03*
X0053667Y0054470D03*
X0030667Y0074470D03*
X0221667Y0106470D03*
D28*
X0154167Y0078470D03*
X0140167Y0073470D03*
X0174167Y0074470D03*
X0179167Y0077470D03*
X0204167Y0054470D03*
X0124167Y0054470D03*
X0094167Y0054470D03*
X0084167Y0054470D03*
X0068167Y0054470D03*
X0063167Y0054470D03*
X0056167Y0054470D03*
X0084167Y0092470D03*
X0046167Y0105470D03*
D29*
X0164667Y0069470D03*
X0225667Y0062470D03*
D30*
X0271832Y0066470D03*
X0127502Y0078470D03*
X0120502Y0077470D03*
X0105832Y0077470D03*
X0123832Y0071470D03*
X0021502Y0089470D03*
D31*
X0144667Y0068470D03*
X0162667Y0068470D03*
X0171667Y0078470D03*
D32*
X0181167Y0068470D03*
X0030497Y0075470D03*
D33*
X0024667Y0098137D03*
X0103667Y0073137D03*
X0107667Y0073804D03*
X0107667Y0074137D03*
X0104667Y0075804D03*
X0104667Y0076137D03*
X0106667Y0076804D03*
X0113667Y0076804D03*
X0113667Y0077137D03*
X0113667Y0076137D03*
X0113667Y0075804D03*
X0113667Y0075137D03*
X0113667Y0074804D03*
X0113667Y0074137D03*
X0113667Y0073804D03*
X0113667Y0073137D03*
X0113667Y0072804D03*
X0113667Y0072137D03*
X0113667Y0071804D03*
X0113667Y0071137D03*
X0113667Y0070804D03*
X0113667Y0070137D03*
X0113667Y0069804D03*
X0113667Y0069137D03*
X0113667Y0068804D03*
X0109667Y0068804D03*
X0102667Y0070804D03*
X0121667Y0076137D03*
X0125667Y0074804D03*
X0124667Y0072137D03*
X0140667Y0071137D03*
X0147667Y0071137D03*
X0147667Y0070804D03*
X0147667Y0070137D03*
X0150667Y0069804D03*
X0150667Y0069137D03*
X0157667Y0069804D03*
X0157667Y0070137D03*
X0156667Y0072804D03*
X0155667Y0074804D03*
X0155667Y0075137D03*
X0152667Y0075137D03*
X0152667Y0074804D03*
X0147667Y0072137D03*
X0147667Y0071804D03*
X0140667Y0075804D03*
X0165667Y0075804D03*
X0165667Y0076137D03*
X0165667Y0076804D03*
X0165667Y0075137D03*
X0173667Y0073804D03*
X0178667Y0075137D03*
X0178667Y0075804D03*
X0178667Y0076137D03*
X0178667Y0076804D03*
X0183667Y0076137D03*
X0183667Y0075804D03*
X0183667Y0072137D03*
X0183667Y0070137D03*
X0165667Y0070137D03*
X0165667Y0091804D03*
X0167667Y0094137D03*
X0182667Y0091804D03*
X0185667Y0091804D03*
X0195667Y0091804D03*
X0221667Y0103804D03*
X0146667Y0094137D03*
X0310667Y0094804D03*
X0321667Y0093804D03*
X0314667Y0086804D03*
D34*
X0134502Y0078137D03*
X0134502Y0077804D03*
X0134502Y0069137D03*
X0134502Y0068804D03*
X0105832Y0072137D03*
D35*
X0144667Y0068804D03*
X0162667Y0068804D03*
X0171667Y0077804D03*
D36*
X0154332Y0071804D03*
X0172002Y0069137D03*
X0172002Y0068804D03*
D37*
X0181167Y0068804D03*
D38*
X0144667Y0069137D03*
X0144667Y0077804D03*
X0105667Y0071804D03*
D39*
X0144502Y0078137D03*
X0162832Y0069137D03*
D40*
X0181002Y0069137D03*
X0181002Y0077804D03*
X0163002Y0077804D03*
D41*
X0134502Y0077470D03*
X0134502Y0078470D03*
X0134502Y0069470D03*
D42*
X0142332Y0069470D03*
X0147002Y0069470D03*
X0127332Y0077470D03*
D43*
X0172002Y0069470D03*
D44*
X0179167Y0069470D03*
X0154167Y0077470D03*
X0142167Y0077470D03*
X0284835Y0093470D03*
D45*
X0225837Y0076804D03*
X0181167Y0073804D03*
X0030497Y0070804D03*
D46*
X0105667Y0071137D03*
D47*
X0154332Y0071137D03*
D48*
X0154167Y0071470D03*
X0105837Y0071470D03*
D49*
X0123832Y0071804D03*
X0120502Y0077804D03*
X0127502Y0077804D03*
X0127502Y0078137D03*
X0105832Y0077804D03*
D50*
X0154167Y0072137D03*
D51*
X0120667Y0076804D03*
X0120667Y0077137D03*
X0105667Y0077137D03*
X0030667Y0074137D03*
X0030667Y0072804D03*
D52*
X0146502Y0072804D03*
X0146502Y0073137D03*
X0163502Y0074137D03*
D53*
X0134337Y0073470D03*
D54*
X0146502Y0073470D03*
X0162832Y0078470D03*
D55*
X0163667Y0073470D03*
X0144667Y0078470D03*
D56*
X0181002Y0073470D03*
D57*
X0134337Y0073804D03*
X0134337Y0074137D03*
D58*
X0163332Y0073804D03*
D59*
X0180997Y0074137D03*
D60*
X0154332Y0077137D03*
D61*
X0113667Y0077470D03*
X0113667Y0078470D03*
D62*
X0113667Y0078137D03*
X0113667Y0077804D03*
D63*
X0154167Y0077804D03*
D64*
X0162837Y0078137D03*
X0171497Y0078137D03*
D65*
X0181002Y0078137D03*
D66*
X0181002Y0078470D03*
D67*
X0225667Y0078804D03*
D68*
X0228500Y0082637D02*
X0228500Y0073637D01*
X0229000Y0073137D01*
X0229000Y0072137D01*
X0228998Y0072077D01*
X0228993Y0072016D01*
X0228984Y0071957D01*
X0228971Y0071898D01*
X0228955Y0071839D01*
X0228935Y0071782D01*
X0228912Y0071727D01*
X0228885Y0071672D01*
X0228856Y0071620D01*
X0228823Y0071569D01*
X0228787Y0071520D01*
X0228749Y0071474D01*
X0228707Y0071430D01*
X0228663Y0071388D01*
X0228617Y0071350D01*
X0228568Y0071314D01*
X0228517Y0071281D01*
X0228465Y0071252D01*
X0228410Y0071225D01*
X0228355Y0071202D01*
X0228298Y0071182D01*
X0228239Y0071166D01*
X0228180Y0071153D01*
X0228121Y0071144D01*
X0228060Y0071139D01*
X0228000Y0071137D01*
X0223000Y0071137D02*
X0222940Y0071139D01*
X0222879Y0071144D01*
X0222820Y0071153D01*
X0222761Y0071166D01*
X0222702Y0071182D01*
X0222645Y0071202D01*
X0222590Y0071225D01*
X0222535Y0071252D01*
X0222483Y0071281D01*
X0222432Y0071314D01*
X0222383Y0071350D01*
X0222337Y0071388D01*
X0222293Y0071430D01*
X0222251Y0071474D01*
X0222213Y0071520D01*
X0222177Y0071569D01*
X0222144Y0071620D01*
X0222115Y0071672D01*
X0222088Y0071727D01*
X0222065Y0071782D01*
X0222045Y0071839D01*
X0222029Y0071898D01*
X0222016Y0071957D01*
X0222007Y0072016D01*
X0222002Y0072077D01*
X0222000Y0072137D01*
X0222000Y0073137D01*
X0222500Y0073637D01*
X0222500Y0082637D01*
X0222000Y0083137D01*
X0222000Y0084137D01*
X0222002Y0084197D01*
X0222007Y0084258D01*
X0222016Y0084317D01*
X0222029Y0084376D01*
X0222045Y0084435D01*
X0222065Y0084492D01*
X0222088Y0084547D01*
X0222115Y0084602D01*
X0222144Y0084654D01*
X0222177Y0084705D01*
X0222213Y0084754D01*
X0222251Y0084800D01*
X0222293Y0084844D01*
X0222337Y0084886D01*
X0222383Y0084924D01*
X0222432Y0084960D01*
X0222483Y0084993D01*
X0222535Y0085022D01*
X0222590Y0085049D01*
X0222645Y0085072D01*
X0222702Y0085092D01*
X0222761Y0085108D01*
X0222820Y0085121D01*
X0222879Y0085130D01*
X0222940Y0085135D01*
X0223000Y0085137D01*
X0228000Y0085137D02*
X0228060Y0085135D01*
X0228121Y0085130D01*
X0228180Y0085121D01*
X0228239Y0085108D01*
X0228298Y0085092D01*
X0228355Y0085072D01*
X0228410Y0085049D01*
X0228465Y0085022D01*
X0228517Y0084993D01*
X0228568Y0084960D01*
X0228617Y0084924D01*
X0228663Y0084886D01*
X0228707Y0084844D01*
X0228749Y0084800D01*
X0228787Y0084754D01*
X0228823Y0084705D01*
X0228856Y0084654D01*
X0228885Y0084602D01*
X0228912Y0084547D01*
X0228935Y0084492D01*
X0228955Y0084435D01*
X0228971Y0084376D01*
X0228984Y0084317D01*
X0228993Y0084258D01*
X0228998Y0084197D01*
X0229000Y0084137D01*
X0229000Y0083137D01*
X0228500Y0082637D01*
X0213500Y0084137D02*
X0213500Y0062137D01*
X0067500Y0062137D01*
X0067500Y0070637D01*
X0067598Y0070639D01*
X0067696Y0070645D01*
X0067794Y0070654D01*
X0067891Y0070668D01*
X0067988Y0070685D01*
X0068084Y0070706D01*
X0068179Y0070731D01*
X0068273Y0070759D01*
X0068365Y0070792D01*
X0068457Y0070827D01*
X0068547Y0070867D01*
X0068635Y0070909D01*
X0068722Y0070956D01*
X0068806Y0071005D01*
X0068889Y0071058D01*
X0068969Y0071114D01*
X0069048Y0071174D01*
X0069124Y0071236D01*
X0069197Y0071301D01*
X0069268Y0071369D01*
X0069336Y0071440D01*
X0069401Y0071513D01*
X0069463Y0071589D01*
X0069523Y0071668D01*
X0069579Y0071748D01*
X0069632Y0071831D01*
X0069681Y0071915D01*
X0069728Y0072002D01*
X0069770Y0072090D01*
X0069810Y0072180D01*
X0069845Y0072272D01*
X0069878Y0072364D01*
X0069906Y0072458D01*
X0069931Y0072553D01*
X0069952Y0072649D01*
X0069969Y0072746D01*
X0069983Y0072843D01*
X0069992Y0072941D01*
X0069998Y0073039D01*
X0070000Y0073137D01*
X0069998Y0073235D01*
X0069992Y0073333D01*
X0069983Y0073431D01*
X0069969Y0073528D01*
X0069952Y0073625D01*
X0069931Y0073721D01*
X0069906Y0073816D01*
X0069878Y0073910D01*
X0069845Y0074002D01*
X0069810Y0074094D01*
X0069770Y0074184D01*
X0069728Y0074272D01*
X0069681Y0074359D01*
X0069632Y0074443D01*
X0069579Y0074526D01*
X0069523Y0074606D01*
X0069463Y0074685D01*
X0069401Y0074761D01*
X0069336Y0074834D01*
X0069268Y0074905D01*
X0069197Y0074973D01*
X0069124Y0075038D01*
X0069048Y0075100D01*
X0068969Y0075160D01*
X0068889Y0075216D01*
X0068806Y0075269D01*
X0068722Y0075318D01*
X0068635Y0075365D01*
X0068547Y0075407D01*
X0068457Y0075447D01*
X0068365Y0075482D01*
X0068273Y0075515D01*
X0068179Y0075543D01*
X0068084Y0075568D01*
X0067988Y0075589D01*
X0067891Y0075606D01*
X0067794Y0075620D01*
X0067696Y0075629D01*
X0067598Y0075635D01*
X0067500Y0075637D01*
X0067500Y0084137D01*
X0213500Y0084137D01*
X0217000Y0093137D02*
X0234000Y0093137D01*
X0234060Y0093139D01*
X0234121Y0093144D01*
X0234180Y0093153D01*
X0234239Y0093166D01*
X0234298Y0093182D01*
X0234355Y0093202D01*
X0234410Y0093225D01*
X0234465Y0093252D01*
X0234517Y0093281D01*
X0234568Y0093314D01*
X0234617Y0093350D01*
X0234663Y0093388D01*
X0234707Y0093430D01*
X0234749Y0093474D01*
X0234787Y0093520D01*
X0234823Y0093569D01*
X0234856Y0093620D01*
X0234885Y0093672D01*
X0234912Y0093727D01*
X0234935Y0093782D01*
X0234955Y0093839D01*
X0234971Y0093898D01*
X0234984Y0093957D01*
X0234993Y0094016D01*
X0234998Y0094077D01*
X0235000Y0094137D01*
X0235000Y0102137D01*
X0234998Y0102197D01*
X0234993Y0102258D01*
X0234984Y0102317D01*
X0234971Y0102376D01*
X0234955Y0102435D01*
X0234935Y0102492D01*
X0234912Y0102547D01*
X0234885Y0102602D01*
X0234856Y0102654D01*
X0234823Y0102705D01*
X0234787Y0102754D01*
X0234749Y0102800D01*
X0234707Y0102844D01*
X0234663Y0102886D01*
X0234617Y0102924D01*
X0234568Y0102960D01*
X0234517Y0102993D01*
X0234465Y0103022D01*
X0234410Y0103049D01*
X0234355Y0103072D01*
X0234298Y0103092D01*
X0234239Y0103108D01*
X0234180Y0103121D01*
X0234121Y0103130D01*
X0234060Y0103135D01*
X0234000Y0103137D01*
X0217000Y0103137D01*
X0216940Y0103135D01*
X0216879Y0103130D01*
X0216820Y0103121D01*
X0216761Y0103108D01*
X0216702Y0103092D01*
X0216645Y0103072D01*
X0216590Y0103049D01*
X0216535Y0103022D01*
X0216483Y0102993D01*
X0216432Y0102960D01*
X0216383Y0102924D01*
X0216337Y0102886D01*
X0216293Y0102844D01*
X0216251Y0102800D01*
X0216213Y0102754D01*
X0216177Y0102705D01*
X0216144Y0102654D01*
X0216115Y0102602D01*
X0216088Y0102547D01*
X0216065Y0102492D01*
X0216045Y0102435D01*
X0216029Y0102376D01*
X0216016Y0102317D01*
X0216007Y0102258D01*
X0216002Y0102197D01*
X0216000Y0102137D01*
X0216000Y0094137D01*
X0216002Y0094077D01*
X0216007Y0094016D01*
X0216016Y0093957D01*
X0216029Y0093898D01*
X0216045Y0093839D01*
X0216065Y0093782D01*
X0216088Y0093727D01*
X0216115Y0093672D01*
X0216144Y0093620D01*
X0216177Y0093569D01*
X0216213Y0093520D01*
X0216251Y0093474D01*
X0216293Y0093430D01*
X0216337Y0093388D01*
X0216383Y0093350D01*
X0216432Y0093314D01*
X0216483Y0093281D01*
X0216535Y0093252D01*
X0216590Y0093225D01*
X0216645Y0093202D01*
X0216702Y0093182D01*
X0216761Y0093166D01*
X0216820Y0093153D01*
X0216879Y0093144D01*
X0216940Y0093139D01*
X0217000Y0093137D01*
X0224000Y0098137D02*
X0224500Y0098137D01*
X0226500Y0098137D02*
X0227000Y0098137D01*
X0247500Y0093137D02*
X0249000Y0093137D01*
X0249000Y0094637D01*
X0249000Y0093137D02*
X0250500Y0093137D01*
X0249000Y0093137D02*
X0249000Y0091637D01*
X0244500Y0088137D02*
X0244503Y0088407D01*
X0244513Y0088677D01*
X0244530Y0088946D01*
X0244553Y0089215D01*
X0244583Y0089484D01*
X0244619Y0089751D01*
X0244662Y0090018D01*
X0244711Y0090283D01*
X0244767Y0090547D01*
X0244830Y0090810D01*
X0244898Y0091071D01*
X0244974Y0091330D01*
X0245055Y0091587D01*
X0245143Y0091843D01*
X0245237Y0092096D01*
X0245337Y0092347D01*
X0245444Y0092595D01*
X0245556Y0092840D01*
X0245675Y0093083D01*
X0245799Y0093322D01*
X0245929Y0093559D01*
X0246065Y0093792D01*
X0246207Y0094022D01*
X0246354Y0094248D01*
X0246507Y0094471D01*
X0246665Y0094690D01*
X0246828Y0094905D01*
X0246997Y0095115D01*
X0247171Y0095322D01*
X0247350Y0095524D01*
X0247533Y0095722D01*
X0247722Y0095915D01*
X0247915Y0096104D01*
X0248113Y0096287D01*
X0248315Y0096466D01*
X0248522Y0096640D01*
X0248732Y0096809D01*
X0248947Y0096972D01*
X0249166Y0097130D01*
X0249389Y0097283D01*
X0249615Y0097430D01*
X0249845Y0097572D01*
X0250078Y0097708D01*
X0250315Y0097838D01*
X0250554Y0097962D01*
X0250797Y0098081D01*
X0251042Y0098193D01*
X0251290Y0098300D01*
X0251541Y0098400D01*
X0251794Y0098494D01*
X0252050Y0098582D01*
X0252307Y0098663D01*
X0252566Y0098739D01*
X0252827Y0098807D01*
X0253090Y0098870D01*
X0253354Y0098926D01*
X0253619Y0098975D01*
X0253886Y0099018D01*
X0254153Y0099054D01*
X0254422Y0099084D01*
X0254691Y0099107D01*
X0254960Y0099124D01*
X0255230Y0099134D01*
X0255500Y0099137D01*
X0255770Y0099134D01*
X0256040Y0099124D01*
X0256309Y0099107D01*
X0256578Y0099084D01*
X0256847Y0099054D01*
X0257114Y0099018D01*
X0257381Y0098975D01*
X0257646Y0098926D01*
X0257910Y0098870D01*
X0258173Y0098807D01*
X0258434Y0098739D01*
X0258693Y0098663D01*
X0258950Y0098582D01*
X0259206Y0098494D01*
X0259459Y0098400D01*
X0259710Y0098300D01*
X0259958Y0098193D01*
X0260203Y0098081D01*
X0260446Y0097962D01*
X0260685Y0097838D01*
X0260922Y0097708D01*
X0261155Y0097572D01*
X0261385Y0097430D01*
X0261611Y0097283D01*
X0261834Y0097130D01*
X0262053Y0096972D01*
X0262268Y0096809D01*
X0262478Y0096640D01*
X0262685Y0096466D01*
X0262887Y0096287D01*
X0263085Y0096104D01*
X0263278Y0095915D01*
X0263467Y0095722D01*
X0263650Y0095524D01*
X0263829Y0095322D01*
X0264003Y0095115D01*
X0264172Y0094905D01*
X0264335Y0094690D01*
X0264493Y0094471D01*
X0264646Y0094248D01*
X0264793Y0094022D01*
X0264935Y0093792D01*
X0265071Y0093559D01*
X0265201Y0093322D01*
X0265325Y0093083D01*
X0265444Y0092840D01*
X0265556Y0092595D01*
X0265663Y0092347D01*
X0265763Y0092096D01*
X0265857Y0091843D01*
X0265945Y0091587D01*
X0266026Y0091330D01*
X0266102Y0091071D01*
X0266170Y0090810D01*
X0266233Y0090547D01*
X0266289Y0090283D01*
X0266338Y0090018D01*
X0266381Y0089751D01*
X0266417Y0089484D01*
X0266447Y0089215D01*
X0266470Y0088946D01*
X0266487Y0088677D01*
X0266497Y0088407D01*
X0266500Y0088137D01*
X0266497Y0087867D01*
X0266487Y0087597D01*
X0266470Y0087328D01*
X0266447Y0087059D01*
X0266417Y0086790D01*
X0266381Y0086523D01*
X0266338Y0086256D01*
X0266289Y0085991D01*
X0266233Y0085727D01*
X0266170Y0085464D01*
X0266102Y0085203D01*
X0266026Y0084944D01*
X0265945Y0084687D01*
X0265857Y0084431D01*
X0265763Y0084178D01*
X0265663Y0083927D01*
X0265556Y0083679D01*
X0265444Y0083434D01*
X0265325Y0083191D01*
X0265201Y0082952D01*
X0265071Y0082715D01*
X0264935Y0082482D01*
X0264793Y0082252D01*
X0264646Y0082026D01*
X0264493Y0081803D01*
X0264335Y0081584D01*
X0264172Y0081369D01*
X0264003Y0081159D01*
X0263829Y0080952D01*
X0263650Y0080750D01*
X0263467Y0080552D01*
X0263278Y0080359D01*
X0263085Y0080170D01*
X0262887Y0079987D01*
X0262685Y0079808D01*
X0262478Y0079634D01*
X0262268Y0079465D01*
X0262053Y0079302D01*
X0261834Y0079144D01*
X0261611Y0078991D01*
X0261385Y0078844D01*
X0261155Y0078702D01*
X0260922Y0078566D01*
X0260685Y0078436D01*
X0260446Y0078312D01*
X0260203Y0078193D01*
X0259958Y0078081D01*
X0259710Y0077974D01*
X0259459Y0077874D01*
X0259206Y0077780D01*
X0258950Y0077692D01*
X0258693Y0077611D01*
X0258434Y0077535D01*
X0258173Y0077467D01*
X0257910Y0077404D01*
X0257646Y0077348D01*
X0257381Y0077299D01*
X0257114Y0077256D01*
X0256847Y0077220D01*
X0256578Y0077190D01*
X0256309Y0077167D01*
X0256040Y0077150D01*
X0255770Y0077140D01*
X0255500Y0077137D01*
X0255230Y0077140D01*
X0254960Y0077150D01*
X0254691Y0077167D01*
X0254422Y0077190D01*
X0254153Y0077220D01*
X0253886Y0077256D01*
X0253619Y0077299D01*
X0253354Y0077348D01*
X0253090Y0077404D01*
X0252827Y0077467D01*
X0252566Y0077535D01*
X0252307Y0077611D01*
X0252050Y0077692D01*
X0251794Y0077780D01*
X0251541Y0077874D01*
X0251290Y0077974D01*
X0251042Y0078081D01*
X0250797Y0078193D01*
X0250554Y0078312D01*
X0250315Y0078436D01*
X0250078Y0078566D01*
X0249845Y0078702D01*
X0249615Y0078844D01*
X0249389Y0078991D01*
X0249166Y0079144D01*
X0248947Y0079302D01*
X0248732Y0079465D01*
X0248522Y0079634D01*
X0248315Y0079808D01*
X0248113Y0079987D01*
X0247915Y0080170D01*
X0247722Y0080359D01*
X0247533Y0080552D01*
X0247350Y0080750D01*
X0247171Y0080952D01*
X0246997Y0081159D01*
X0246828Y0081369D01*
X0246665Y0081584D01*
X0246507Y0081803D01*
X0246354Y0082026D01*
X0246207Y0082252D01*
X0246065Y0082482D01*
X0245929Y0082715D01*
X0245799Y0082952D01*
X0245675Y0083191D01*
X0245556Y0083434D01*
X0245444Y0083679D01*
X0245337Y0083927D01*
X0245237Y0084178D01*
X0245143Y0084431D01*
X0245055Y0084687D01*
X0244974Y0084944D01*
X0244898Y0085203D01*
X0244830Y0085464D01*
X0244767Y0085727D01*
X0244711Y0085991D01*
X0244662Y0086256D01*
X0244619Y0086523D01*
X0244583Y0086790D01*
X0244553Y0087059D01*
X0244530Y0087328D01*
X0244513Y0087597D01*
X0244503Y0087867D01*
X0244500Y0088137D01*
X0269000Y0079637D02*
X0269000Y0078137D01*
X0270500Y0078137D01*
X0269000Y0078137D02*
X0269000Y0076637D01*
X0269000Y0078137D02*
X0267500Y0078137D01*
X0264500Y0073137D02*
X0264503Y0073407D01*
X0264513Y0073677D01*
X0264530Y0073946D01*
X0264553Y0074215D01*
X0264583Y0074484D01*
X0264619Y0074751D01*
X0264662Y0075018D01*
X0264711Y0075283D01*
X0264767Y0075547D01*
X0264830Y0075810D01*
X0264898Y0076071D01*
X0264974Y0076330D01*
X0265055Y0076587D01*
X0265143Y0076843D01*
X0265237Y0077096D01*
X0265337Y0077347D01*
X0265444Y0077595D01*
X0265556Y0077840D01*
X0265675Y0078083D01*
X0265799Y0078322D01*
X0265929Y0078559D01*
X0266065Y0078792D01*
X0266207Y0079022D01*
X0266354Y0079248D01*
X0266507Y0079471D01*
X0266665Y0079690D01*
X0266828Y0079905D01*
X0266997Y0080115D01*
X0267171Y0080322D01*
X0267350Y0080524D01*
X0267533Y0080722D01*
X0267722Y0080915D01*
X0267915Y0081104D01*
X0268113Y0081287D01*
X0268315Y0081466D01*
X0268522Y0081640D01*
X0268732Y0081809D01*
X0268947Y0081972D01*
X0269166Y0082130D01*
X0269389Y0082283D01*
X0269615Y0082430D01*
X0269845Y0082572D01*
X0270078Y0082708D01*
X0270315Y0082838D01*
X0270554Y0082962D01*
X0270797Y0083081D01*
X0271042Y0083193D01*
X0271290Y0083300D01*
X0271541Y0083400D01*
X0271794Y0083494D01*
X0272050Y0083582D01*
X0272307Y0083663D01*
X0272566Y0083739D01*
X0272827Y0083807D01*
X0273090Y0083870D01*
X0273354Y0083926D01*
X0273619Y0083975D01*
X0273886Y0084018D01*
X0274153Y0084054D01*
X0274422Y0084084D01*
X0274691Y0084107D01*
X0274960Y0084124D01*
X0275230Y0084134D01*
X0275500Y0084137D01*
X0275770Y0084134D01*
X0276040Y0084124D01*
X0276309Y0084107D01*
X0276578Y0084084D01*
X0276847Y0084054D01*
X0277114Y0084018D01*
X0277381Y0083975D01*
X0277646Y0083926D01*
X0277910Y0083870D01*
X0278173Y0083807D01*
X0278434Y0083739D01*
X0278693Y0083663D01*
X0278950Y0083582D01*
X0279206Y0083494D01*
X0279459Y0083400D01*
X0279710Y0083300D01*
X0279958Y0083193D01*
X0280203Y0083081D01*
X0280446Y0082962D01*
X0280685Y0082838D01*
X0280922Y0082708D01*
X0281155Y0082572D01*
X0281385Y0082430D01*
X0281611Y0082283D01*
X0281834Y0082130D01*
X0282053Y0081972D01*
X0282268Y0081809D01*
X0282478Y0081640D01*
X0282685Y0081466D01*
X0282887Y0081287D01*
X0283085Y0081104D01*
X0283278Y0080915D01*
X0283467Y0080722D01*
X0283650Y0080524D01*
X0283829Y0080322D01*
X0284003Y0080115D01*
X0284172Y0079905D01*
X0284335Y0079690D01*
X0284493Y0079471D01*
X0284646Y0079248D01*
X0284793Y0079022D01*
X0284935Y0078792D01*
X0285071Y0078559D01*
X0285201Y0078322D01*
X0285325Y0078083D01*
X0285444Y0077840D01*
X0285556Y0077595D01*
X0285663Y0077347D01*
X0285763Y0077096D01*
X0285857Y0076843D01*
X0285945Y0076587D01*
X0286026Y0076330D01*
X0286102Y0076071D01*
X0286170Y0075810D01*
X0286233Y0075547D01*
X0286289Y0075283D01*
X0286338Y0075018D01*
X0286381Y0074751D01*
X0286417Y0074484D01*
X0286447Y0074215D01*
X0286470Y0073946D01*
X0286487Y0073677D01*
X0286497Y0073407D01*
X0286500Y0073137D01*
X0286497Y0072867D01*
X0286487Y0072597D01*
X0286470Y0072328D01*
X0286447Y0072059D01*
X0286417Y0071790D01*
X0286381Y0071523D01*
X0286338Y0071256D01*
X0286289Y0070991D01*
X0286233Y0070727D01*
X0286170Y0070464D01*
X0286102Y0070203D01*
X0286026Y0069944D01*
X0285945Y0069687D01*
X0285857Y0069431D01*
X0285763Y0069178D01*
X0285663Y0068927D01*
X0285556Y0068679D01*
X0285444Y0068434D01*
X0285325Y0068191D01*
X0285201Y0067952D01*
X0285071Y0067715D01*
X0284935Y0067482D01*
X0284793Y0067252D01*
X0284646Y0067026D01*
X0284493Y0066803D01*
X0284335Y0066584D01*
X0284172Y0066369D01*
X0284003Y0066159D01*
X0283829Y0065952D01*
X0283650Y0065750D01*
X0283467Y0065552D01*
X0283278Y0065359D01*
X0283085Y0065170D01*
X0282887Y0064987D01*
X0282685Y0064808D01*
X0282478Y0064634D01*
X0282268Y0064465D01*
X0282053Y0064302D01*
X0281834Y0064144D01*
X0281611Y0063991D01*
X0281385Y0063844D01*
X0281155Y0063702D01*
X0280922Y0063566D01*
X0280685Y0063436D01*
X0280446Y0063312D01*
X0280203Y0063193D01*
X0279958Y0063081D01*
X0279710Y0062974D01*
X0279459Y0062874D01*
X0279206Y0062780D01*
X0278950Y0062692D01*
X0278693Y0062611D01*
X0278434Y0062535D01*
X0278173Y0062467D01*
X0277910Y0062404D01*
X0277646Y0062348D01*
X0277381Y0062299D01*
X0277114Y0062256D01*
X0276847Y0062220D01*
X0276578Y0062190D01*
X0276309Y0062167D01*
X0276040Y0062150D01*
X0275770Y0062140D01*
X0275500Y0062137D01*
X0275230Y0062140D01*
X0274960Y0062150D01*
X0274691Y0062167D01*
X0274422Y0062190D01*
X0274153Y0062220D01*
X0273886Y0062256D01*
X0273619Y0062299D01*
X0273354Y0062348D01*
X0273090Y0062404D01*
X0272827Y0062467D01*
X0272566Y0062535D01*
X0272307Y0062611D01*
X0272050Y0062692D01*
X0271794Y0062780D01*
X0271541Y0062874D01*
X0271290Y0062974D01*
X0271042Y0063081D01*
X0270797Y0063193D01*
X0270554Y0063312D01*
X0270315Y0063436D01*
X0270078Y0063566D01*
X0269845Y0063702D01*
X0269615Y0063844D01*
X0269389Y0063991D01*
X0269166Y0064144D01*
X0268947Y0064302D01*
X0268732Y0064465D01*
X0268522Y0064634D01*
X0268315Y0064808D01*
X0268113Y0064987D01*
X0267915Y0065170D01*
X0267722Y0065359D01*
X0267533Y0065552D01*
X0267350Y0065750D01*
X0267171Y0065952D01*
X0266997Y0066159D01*
X0266828Y0066369D01*
X0266665Y0066584D01*
X0266507Y0066803D01*
X0266354Y0067026D01*
X0266207Y0067252D01*
X0266065Y0067482D01*
X0265929Y0067715D01*
X0265799Y0067952D01*
X0265675Y0068191D01*
X0265556Y0068434D01*
X0265444Y0068679D01*
X0265337Y0068927D01*
X0265237Y0069178D01*
X0265143Y0069431D01*
X0265055Y0069687D01*
X0264974Y0069944D01*
X0264898Y0070203D01*
X0264830Y0070464D01*
X0264767Y0070727D01*
X0264711Y0070991D01*
X0264662Y0071256D01*
X0264619Y0071523D01*
X0264583Y0071790D01*
X0264553Y0072059D01*
X0264530Y0072328D01*
X0264513Y0072597D01*
X0264503Y0072867D01*
X0264500Y0073137D01*
X0245500Y0076137D02*
X0235500Y0076137D01*
X0235500Y0060137D01*
X0245500Y0060137D01*
X0245500Y0076137D01*
X0240500Y0074137D02*
X0240500Y0068137D01*
X0243000Y0068137D01*
X0240500Y0068137D02*
X0238000Y0068137D01*
X0240500Y0068137D02*
X0238000Y0072137D01*
X0243000Y0072137D01*
X0240500Y0068137D01*
X0240500Y0065637D01*
X0250500Y0059137D02*
X0250500Y0047637D01*
X0221817Y0057873D02*
X0221698Y0057779D01*
X0221582Y0057681D01*
X0221468Y0057581D01*
X0221357Y0057477D01*
X0221249Y0057371D01*
X0221143Y0057263D01*
X0221041Y0057151D01*
X0220941Y0057037D01*
X0220843Y0056921D01*
X0220749Y0056802D01*
X0220658Y0056681D01*
X0220570Y0056557D01*
X0220485Y0056431D01*
X0220404Y0056304D01*
X0220325Y0056174D01*
X0220250Y0056042D01*
X0220179Y0055909D01*
X0220110Y0055773D01*
X0220045Y0055636D01*
X0219984Y0055498D01*
X0219926Y0055357D01*
X0219872Y0055216D01*
X0219821Y0055073D01*
X0219774Y0054929D01*
X0219730Y0054784D01*
X0219691Y0054637D01*
X0219655Y0054490D01*
X0219622Y0054342D01*
X0219594Y0054193D01*
X0219569Y0054043D01*
X0219548Y0053893D01*
X0219531Y0053743D01*
X0219517Y0053591D01*
X0219508Y0053440D01*
X0219502Y0053289D01*
X0219500Y0053137D01*
X0229100Y0057937D02*
X0229219Y0057845D01*
X0229336Y0057751D01*
X0229450Y0057653D01*
X0229562Y0057553D01*
X0229672Y0057449D01*
X0229778Y0057344D01*
X0229883Y0057235D01*
X0229984Y0057124D01*
X0230082Y0057010D01*
X0230178Y0056894D01*
X0230271Y0056776D01*
X0230360Y0056655D01*
X0230447Y0056532D01*
X0230530Y0056407D01*
X0230611Y0056280D01*
X0230688Y0056151D01*
X0230762Y0056020D01*
X0230833Y0055887D01*
X0230900Y0055753D01*
X0230964Y0055617D01*
X0231024Y0055479D01*
X0231081Y0055340D01*
X0231134Y0055199D01*
X0231184Y0055057D01*
X0231231Y0054914D01*
X0231273Y0054770D01*
X0231313Y0054625D01*
X0231348Y0054479D01*
X0231380Y0054332D01*
X0231408Y0054184D01*
X0231432Y0054036D01*
X0231453Y0053887D01*
X0231470Y0053737D01*
X0231483Y0053588D01*
X0231492Y0053438D01*
X0231498Y0053287D01*
X0231500Y0053137D01*
X0221817Y0048401D02*
X0221698Y0048495D01*
X0221582Y0048593D01*
X0221468Y0048693D01*
X0221357Y0048797D01*
X0221249Y0048903D01*
X0221143Y0049011D01*
X0221041Y0049123D01*
X0220941Y0049237D01*
X0220843Y0049353D01*
X0220749Y0049472D01*
X0220658Y0049593D01*
X0220570Y0049717D01*
X0220485Y0049843D01*
X0220404Y0049970D01*
X0220325Y0050100D01*
X0220250Y0050232D01*
X0220179Y0050365D01*
X0220110Y0050501D01*
X0220045Y0050638D01*
X0219984Y0050776D01*
X0219926Y0050917D01*
X0219872Y0051058D01*
X0219821Y0051201D01*
X0219774Y0051345D01*
X0219730Y0051490D01*
X0219691Y0051637D01*
X0219655Y0051784D01*
X0219622Y0051932D01*
X0219594Y0052081D01*
X0219569Y0052231D01*
X0219548Y0052381D01*
X0219531Y0052531D01*
X0219517Y0052683D01*
X0219508Y0052834D01*
X0219502Y0052985D01*
X0219500Y0053137D01*
X0228987Y0048255D02*
X0229112Y0048346D01*
X0229234Y0048440D01*
X0229353Y0048538D01*
X0229470Y0048638D01*
X0229584Y0048742D01*
X0229696Y0048848D01*
X0229804Y0048957D01*
X0229910Y0049069D01*
X0230013Y0049184D01*
X0230113Y0049301D01*
X0230211Y0049421D01*
X0230304Y0049543D01*
X0230395Y0049667D01*
X0230483Y0049794D01*
X0230567Y0049923D01*
X0230648Y0050055D01*
X0230725Y0050188D01*
X0230799Y0050323D01*
X0230870Y0050460D01*
X0230937Y0050599D01*
X0231000Y0050739D01*
X0231060Y0050882D01*
X0231116Y0051025D01*
X0231168Y0051170D01*
X0231217Y0051316D01*
X0231262Y0051464D01*
X0231303Y0051612D01*
X0231340Y0051762D01*
X0231374Y0051912D01*
X0231403Y0052064D01*
X0231429Y0052216D01*
X0231451Y0052368D01*
X0231468Y0052521D01*
X0231482Y0052675D01*
X0231492Y0052829D01*
X0231498Y0052983D01*
X0231500Y0053137D01*
X0250500Y0059137D02*
X0251500Y0060137D01*
X0289500Y0060137D01*
X0290500Y0059137D01*
X0290500Y0047637D01*
X0050000Y0094137D02*
X0050000Y0102137D01*
X0049998Y0102197D01*
X0049993Y0102258D01*
X0049984Y0102317D01*
X0049971Y0102376D01*
X0049955Y0102435D01*
X0049935Y0102492D01*
X0049912Y0102547D01*
X0049885Y0102602D01*
X0049856Y0102654D01*
X0049823Y0102705D01*
X0049787Y0102754D01*
X0049749Y0102800D01*
X0049707Y0102844D01*
X0049663Y0102886D01*
X0049617Y0102924D01*
X0049568Y0102960D01*
X0049517Y0102993D01*
X0049465Y0103022D01*
X0049410Y0103049D01*
X0049355Y0103072D01*
X0049298Y0103092D01*
X0049239Y0103108D01*
X0049180Y0103121D01*
X0049121Y0103130D01*
X0049060Y0103135D01*
X0049000Y0103137D01*
X0032000Y0103137D01*
X0031940Y0103135D01*
X0031879Y0103130D01*
X0031820Y0103121D01*
X0031761Y0103108D01*
X0031702Y0103092D01*
X0031645Y0103072D01*
X0031590Y0103049D01*
X0031535Y0103022D01*
X0031483Y0102993D01*
X0031432Y0102960D01*
X0031383Y0102924D01*
X0031337Y0102886D01*
X0031293Y0102844D01*
X0031251Y0102800D01*
X0031213Y0102754D01*
X0031177Y0102705D01*
X0031144Y0102654D01*
X0031115Y0102602D01*
X0031088Y0102547D01*
X0031065Y0102492D01*
X0031045Y0102435D01*
X0031029Y0102376D01*
X0031016Y0102317D01*
X0031007Y0102258D01*
X0031002Y0102197D01*
X0031000Y0102137D01*
X0031000Y0094137D01*
X0031002Y0094077D01*
X0031007Y0094016D01*
X0031016Y0093957D01*
X0031029Y0093898D01*
X0031045Y0093839D01*
X0031065Y0093782D01*
X0031088Y0093727D01*
X0031115Y0093672D01*
X0031144Y0093620D01*
X0031177Y0093569D01*
X0031213Y0093520D01*
X0031251Y0093474D01*
X0031293Y0093430D01*
X0031337Y0093388D01*
X0031383Y0093350D01*
X0031432Y0093314D01*
X0031483Y0093281D01*
X0031535Y0093252D01*
X0031590Y0093225D01*
X0031645Y0093202D01*
X0031702Y0093182D01*
X0031761Y0093166D01*
X0031820Y0093153D01*
X0031879Y0093144D01*
X0031940Y0093139D01*
X0032000Y0093137D01*
X0049000Y0093137D01*
X0049060Y0093139D01*
X0049121Y0093144D01*
X0049180Y0093153D01*
X0049239Y0093166D01*
X0049298Y0093182D01*
X0049355Y0093202D01*
X0049410Y0093225D01*
X0049465Y0093252D01*
X0049517Y0093281D01*
X0049568Y0093314D01*
X0049617Y0093350D01*
X0049663Y0093388D01*
X0049707Y0093430D01*
X0049749Y0093474D01*
X0049787Y0093520D01*
X0049823Y0093569D01*
X0049856Y0093620D01*
X0049885Y0093672D01*
X0049912Y0093727D01*
X0049935Y0093782D01*
X0049955Y0093839D01*
X0049971Y0093898D01*
X0049984Y0093957D01*
X0049993Y0094016D01*
X0049998Y0094077D01*
X0050000Y0094137D01*
X0042000Y0098137D02*
X0041500Y0098137D01*
X0039500Y0098137D02*
X0039000Y0098137D01*
X0034000Y0079137D02*
X0034000Y0078137D01*
X0033500Y0077637D01*
X0033500Y0068637D01*
X0034000Y0068137D01*
X0034000Y0067137D01*
X0033998Y0067077D01*
X0033993Y0067016D01*
X0033984Y0066957D01*
X0033971Y0066898D01*
X0033955Y0066839D01*
X0033935Y0066782D01*
X0033912Y0066727D01*
X0033885Y0066672D01*
X0033856Y0066620D01*
X0033823Y0066569D01*
X0033787Y0066520D01*
X0033749Y0066474D01*
X0033707Y0066430D01*
X0033663Y0066388D01*
X0033617Y0066350D01*
X0033568Y0066314D01*
X0033517Y0066281D01*
X0033465Y0066252D01*
X0033410Y0066225D01*
X0033355Y0066202D01*
X0033298Y0066182D01*
X0033239Y0066166D01*
X0033180Y0066153D01*
X0033121Y0066144D01*
X0033060Y0066139D01*
X0033000Y0066137D01*
X0028000Y0066137D02*
X0027940Y0066139D01*
X0027879Y0066144D01*
X0027820Y0066153D01*
X0027761Y0066166D01*
X0027702Y0066182D01*
X0027645Y0066202D01*
X0027590Y0066225D01*
X0027535Y0066252D01*
X0027483Y0066281D01*
X0027432Y0066314D01*
X0027383Y0066350D01*
X0027337Y0066388D01*
X0027293Y0066430D01*
X0027251Y0066474D01*
X0027213Y0066520D01*
X0027177Y0066569D01*
X0027144Y0066620D01*
X0027115Y0066672D01*
X0027088Y0066727D01*
X0027065Y0066782D01*
X0027045Y0066839D01*
X0027029Y0066898D01*
X0027016Y0066957D01*
X0027007Y0067016D01*
X0027002Y0067077D01*
X0027000Y0067137D01*
X0027000Y0068137D01*
X0027500Y0068637D01*
X0027500Y0077637D01*
X0027000Y0078137D01*
X0027000Y0079137D01*
X0027002Y0079197D01*
X0027007Y0079258D01*
X0027016Y0079317D01*
X0027029Y0079376D01*
X0027045Y0079435D01*
X0027065Y0079492D01*
X0027088Y0079547D01*
X0027115Y0079602D01*
X0027144Y0079654D01*
X0027177Y0079705D01*
X0027213Y0079754D01*
X0027251Y0079800D01*
X0027293Y0079844D01*
X0027337Y0079886D01*
X0027383Y0079924D01*
X0027432Y0079960D01*
X0027483Y0079993D01*
X0027535Y0080022D01*
X0027590Y0080049D01*
X0027645Y0080072D01*
X0027702Y0080092D01*
X0027761Y0080108D01*
X0027820Y0080121D01*
X0027879Y0080130D01*
X0027940Y0080135D01*
X0028000Y0080137D01*
X0033000Y0080137D02*
X0033060Y0080135D01*
X0033121Y0080130D01*
X0033180Y0080121D01*
X0033239Y0080108D01*
X0033298Y0080092D01*
X0033355Y0080072D01*
X0033410Y0080049D01*
X0033465Y0080022D01*
X0033517Y0079993D01*
X0033568Y0079960D01*
X0033617Y0079924D01*
X0033663Y0079886D01*
X0033707Y0079844D01*
X0033749Y0079800D01*
X0033787Y0079754D01*
X0033823Y0079705D01*
X0033856Y0079654D01*
X0033885Y0079602D01*
X0033912Y0079547D01*
X0033935Y0079492D01*
X0033955Y0079435D01*
X0033971Y0079376D01*
X0033984Y0079317D01*
X0033993Y0079258D01*
X0033998Y0079197D01*
X0034000Y0079137D01*
D69*
X0288700Y0057737D03*
D70*
X0287750Y0045637D03*
X0253250Y0045637D03*
D71*
X0260500Y0044637D03*
X0270500Y0044637D03*
X0280500Y0044637D03*
D72*
X0275500Y0045637D03*
X0265500Y0045637D03*
D73*
X0297783Y0049200D02*
X0297783Y0054956D01*
X0297783Y0049200D02*
X0308551Y0049200D01*
X0322449Y0049200D02*
X0333217Y0049200D01*
X0333217Y0102326D01*
X0297783Y0102326D01*
X0297783Y0067460D01*
X0164500Y0055137D02*
X0164671Y0055108D01*
X0164841Y0055075D01*
X0165010Y0055039D01*
X0165178Y0054998D01*
X0165345Y0054952D01*
X0165511Y0054903D01*
X0165676Y0054850D01*
X0165839Y0054793D01*
X0166001Y0054732D01*
X0166162Y0054667D01*
X0166320Y0054598D01*
X0166477Y0054525D01*
X0166632Y0054448D01*
X0166786Y0054368D01*
X0166937Y0054283D01*
X0167086Y0054196D01*
X0167233Y0054104D01*
X0167378Y0054009D01*
X0167520Y0053911D01*
X0167660Y0053809D01*
X0167797Y0053703D01*
X0167932Y0053595D01*
X0168064Y0053483D01*
X0168193Y0053368D01*
X0168319Y0053249D01*
X0168443Y0053128D01*
X0168563Y0053004D01*
X0168681Y0052877D01*
X0168795Y0052747D01*
X0168906Y0052614D01*
X0169014Y0052478D01*
X0169118Y0052340D01*
X0169219Y0052200D01*
X0169317Y0052057D01*
X0169411Y0051911D01*
X0169501Y0051764D01*
X0169588Y0051614D01*
X0169671Y0051462D01*
X0169750Y0051309D01*
X0169826Y0051153D01*
X0169898Y0050995D01*
X0169966Y0050836D01*
X0170030Y0050675D01*
X0170090Y0050513D01*
X0170146Y0050349D01*
X0170198Y0050184D01*
X0170246Y0050018D01*
X0170290Y0049851D01*
X0170329Y0049682D01*
X0170365Y0049513D01*
X0170397Y0049343D01*
X0170424Y0049172D01*
X0170447Y0049000D01*
X0170466Y0048828D01*
X0170481Y0048656D01*
X0170492Y0048483D01*
X0170498Y0048310D01*
X0170500Y0048137D01*
X0170498Y0047964D01*
X0170492Y0047791D01*
X0170481Y0047618D01*
X0170466Y0047446D01*
X0170447Y0047274D01*
X0170424Y0047102D01*
X0170397Y0046931D01*
X0170365Y0046761D01*
X0170329Y0046592D01*
X0170290Y0046423D01*
X0170246Y0046256D01*
X0170198Y0046090D01*
X0170146Y0045925D01*
X0170090Y0045761D01*
X0170030Y0045599D01*
X0169966Y0045438D01*
X0169898Y0045279D01*
X0169826Y0045121D01*
X0169750Y0044965D01*
X0169671Y0044812D01*
X0169588Y0044660D01*
X0169501Y0044510D01*
X0169411Y0044363D01*
X0169317Y0044217D01*
X0169219Y0044074D01*
X0169118Y0043934D01*
X0169014Y0043796D01*
X0168906Y0043660D01*
X0168795Y0043527D01*
X0168681Y0043397D01*
X0168563Y0043270D01*
X0168443Y0043146D01*
X0168319Y0043025D01*
X0168193Y0042906D01*
X0168064Y0042791D01*
X0167932Y0042679D01*
X0167797Y0042571D01*
X0167660Y0042465D01*
X0167520Y0042363D01*
X0167378Y0042265D01*
X0167233Y0042170D01*
X0167086Y0042078D01*
X0166937Y0041991D01*
X0166786Y0041906D01*
X0166632Y0041826D01*
X0166477Y0041749D01*
X0166320Y0041676D01*
X0166162Y0041607D01*
X0166001Y0041542D01*
X0165839Y0041481D01*
X0165676Y0041424D01*
X0165511Y0041371D01*
X0165345Y0041322D01*
X0165178Y0041276D01*
X0165010Y0041235D01*
X0164841Y0041199D01*
X0164671Y0041166D01*
X0164500Y0041137D01*
X0146500Y0041137D02*
X0146329Y0041166D01*
X0146159Y0041199D01*
X0145990Y0041235D01*
X0145822Y0041276D01*
X0145655Y0041322D01*
X0145489Y0041371D01*
X0145324Y0041424D01*
X0145161Y0041481D01*
X0144999Y0041542D01*
X0144838Y0041607D01*
X0144680Y0041676D01*
X0144523Y0041749D01*
X0144368Y0041826D01*
X0144214Y0041906D01*
X0144063Y0041991D01*
X0143914Y0042078D01*
X0143767Y0042170D01*
X0143622Y0042265D01*
X0143480Y0042363D01*
X0143340Y0042465D01*
X0143203Y0042571D01*
X0143068Y0042679D01*
X0142936Y0042791D01*
X0142807Y0042906D01*
X0142681Y0043025D01*
X0142557Y0043146D01*
X0142437Y0043270D01*
X0142319Y0043397D01*
X0142205Y0043527D01*
X0142094Y0043660D01*
X0141986Y0043796D01*
X0141882Y0043934D01*
X0141781Y0044074D01*
X0141683Y0044217D01*
X0141589Y0044363D01*
X0141499Y0044510D01*
X0141412Y0044660D01*
X0141329Y0044812D01*
X0141250Y0044965D01*
X0141174Y0045121D01*
X0141102Y0045279D01*
X0141034Y0045438D01*
X0140970Y0045599D01*
X0140910Y0045761D01*
X0140854Y0045925D01*
X0140802Y0046090D01*
X0140754Y0046256D01*
X0140710Y0046423D01*
X0140671Y0046592D01*
X0140635Y0046761D01*
X0140603Y0046931D01*
X0140576Y0047102D01*
X0140553Y0047274D01*
X0140534Y0047446D01*
X0140519Y0047618D01*
X0140508Y0047791D01*
X0140502Y0047964D01*
X0140500Y0048137D01*
X0140502Y0048310D01*
X0140508Y0048483D01*
X0140519Y0048656D01*
X0140534Y0048828D01*
X0140553Y0049000D01*
X0140576Y0049172D01*
X0140603Y0049343D01*
X0140635Y0049513D01*
X0140671Y0049682D01*
X0140710Y0049851D01*
X0140754Y0050018D01*
X0140802Y0050184D01*
X0140854Y0050349D01*
X0140910Y0050513D01*
X0140970Y0050675D01*
X0141034Y0050836D01*
X0141102Y0050995D01*
X0141174Y0051153D01*
X0141250Y0051309D01*
X0141329Y0051462D01*
X0141412Y0051614D01*
X0141499Y0051764D01*
X0141589Y0051911D01*
X0141683Y0052057D01*
X0141781Y0052200D01*
X0141882Y0052340D01*
X0141986Y0052478D01*
X0142094Y0052614D01*
X0142205Y0052747D01*
X0142319Y0052877D01*
X0142437Y0053004D01*
X0142557Y0053128D01*
X0142681Y0053249D01*
X0142807Y0053368D01*
X0142936Y0053483D01*
X0143068Y0053595D01*
X0143203Y0053703D01*
X0143340Y0053809D01*
X0143480Y0053911D01*
X0143622Y0054009D01*
X0143767Y0054104D01*
X0143914Y0054196D01*
X0144063Y0054283D01*
X0144214Y0054368D01*
X0144368Y0054448D01*
X0144523Y0054525D01*
X0144680Y0054598D01*
X0144838Y0054667D01*
X0144999Y0054732D01*
X0145161Y0054793D01*
X0145324Y0054850D01*
X0145489Y0054903D01*
X0145655Y0054952D01*
X0145822Y0054998D01*
X0145990Y0055039D01*
X0146159Y0055075D01*
X0146329Y0055108D01*
X0146500Y0055137D01*
X0062500Y0064637D02*
X0062500Y0081637D01*
X0054547Y0085137D02*
X0046500Y0085137D01*
X0038500Y0081637D02*
X0038500Y0064637D01*
X0046500Y0061137D02*
X0054429Y0061137D01*
X0043500Y0073137D02*
X0043502Y0073309D01*
X0043508Y0073480D01*
X0043519Y0073652D01*
X0043534Y0073823D01*
X0043553Y0073994D01*
X0043576Y0074164D01*
X0043603Y0074334D01*
X0043635Y0074503D01*
X0043670Y0074671D01*
X0043710Y0074838D01*
X0043754Y0075004D01*
X0043801Y0075169D01*
X0043853Y0075333D01*
X0043909Y0075495D01*
X0043969Y0075656D01*
X0044033Y0075816D01*
X0044101Y0075974D01*
X0044172Y0076130D01*
X0044247Y0076284D01*
X0044327Y0076437D01*
X0044409Y0076587D01*
X0044496Y0076736D01*
X0044586Y0076882D01*
X0044680Y0077026D01*
X0044777Y0077168D01*
X0044878Y0077307D01*
X0044982Y0077444D01*
X0045089Y0077578D01*
X0045200Y0077709D01*
X0045313Y0077838D01*
X0045430Y0077964D01*
X0045550Y0078087D01*
X0045673Y0078207D01*
X0045799Y0078324D01*
X0045928Y0078437D01*
X0046059Y0078548D01*
X0046193Y0078655D01*
X0046330Y0078759D01*
X0046469Y0078860D01*
X0046611Y0078957D01*
X0046755Y0079051D01*
X0046901Y0079141D01*
X0047050Y0079228D01*
X0047200Y0079310D01*
X0047353Y0079390D01*
X0047507Y0079465D01*
X0047663Y0079536D01*
X0047821Y0079604D01*
X0047981Y0079668D01*
X0048142Y0079728D01*
X0048304Y0079784D01*
X0048468Y0079836D01*
X0048633Y0079883D01*
X0048799Y0079927D01*
X0048966Y0079967D01*
X0049134Y0080002D01*
X0049303Y0080034D01*
X0049473Y0080061D01*
X0049643Y0080084D01*
X0049814Y0080103D01*
X0049985Y0080118D01*
X0050157Y0080129D01*
X0050328Y0080135D01*
X0050500Y0080137D01*
X0050672Y0080135D01*
X0050843Y0080129D01*
X0051015Y0080118D01*
X0051186Y0080103D01*
X0051357Y0080084D01*
X0051527Y0080061D01*
X0051697Y0080034D01*
X0051866Y0080002D01*
X0052034Y0079967D01*
X0052201Y0079927D01*
X0052367Y0079883D01*
X0052532Y0079836D01*
X0052696Y0079784D01*
X0052858Y0079728D01*
X0053019Y0079668D01*
X0053179Y0079604D01*
X0053337Y0079536D01*
X0053493Y0079465D01*
X0053647Y0079390D01*
X0053800Y0079310D01*
X0053950Y0079228D01*
X0054099Y0079141D01*
X0054245Y0079051D01*
X0054389Y0078957D01*
X0054531Y0078860D01*
X0054670Y0078759D01*
X0054807Y0078655D01*
X0054941Y0078548D01*
X0055072Y0078437D01*
X0055201Y0078324D01*
X0055327Y0078207D01*
X0055450Y0078087D01*
X0055570Y0077964D01*
X0055687Y0077838D01*
X0055800Y0077709D01*
X0055911Y0077578D01*
X0056018Y0077444D01*
X0056122Y0077307D01*
X0056223Y0077168D01*
X0056320Y0077026D01*
X0056414Y0076882D01*
X0056504Y0076736D01*
X0056591Y0076587D01*
X0056673Y0076437D01*
X0056753Y0076284D01*
X0056828Y0076130D01*
X0056899Y0075974D01*
X0056967Y0075816D01*
X0057031Y0075656D01*
X0057091Y0075495D01*
X0057147Y0075333D01*
X0057199Y0075169D01*
X0057246Y0075004D01*
X0057290Y0074838D01*
X0057330Y0074671D01*
X0057365Y0074503D01*
X0057397Y0074334D01*
X0057424Y0074164D01*
X0057447Y0073994D01*
X0057466Y0073823D01*
X0057481Y0073652D01*
X0057492Y0073480D01*
X0057498Y0073309D01*
X0057500Y0073137D01*
X0057498Y0072965D01*
X0057492Y0072794D01*
X0057481Y0072622D01*
X0057466Y0072451D01*
X0057447Y0072280D01*
X0057424Y0072110D01*
X0057397Y0071940D01*
X0057365Y0071771D01*
X0057330Y0071603D01*
X0057290Y0071436D01*
X0057246Y0071270D01*
X0057199Y0071105D01*
X0057147Y0070941D01*
X0057091Y0070779D01*
X0057031Y0070618D01*
X0056967Y0070458D01*
X0056899Y0070300D01*
X0056828Y0070144D01*
X0056753Y0069990D01*
X0056673Y0069837D01*
X0056591Y0069687D01*
X0056504Y0069538D01*
X0056414Y0069392D01*
X0056320Y0069248D01*
X0056223Y0069106D01*
X0056122Y0068967D01*
X0056018Y0068830D01*
X0055911Y0068696D01*
X0055800Y0068565D01*
X0055687Y0068436D01*
X0055570Y0068310D01*
X0055450Y0068187D01*
X0055327Y0068067D01*
X0055201Y0067950D01*
X0055072Y0067837D01*
X0054941Y0067726D01*
X0054807Y0067619D01*
X0054670Y0067515D01*
X0054531Y0067414D01*
X0054389Y0067317D01*
X0054245Y0067223D01*
X0054099Y0067133D01*
X0053950Y0067046D01*
X0053800Y0066964D01*
X0053647Y0066884D01*
X0053493Y0066809D01*
X0053337Y0066738D01*
X0053179Y0066670D01*
X0053019Y0066606D01*
X0052858Y0066546D01*
X0052696Y0066490D01*
X0052532Y0066438D01*
X0052367Y0066391D01*
X0052201Y0066347D01*
X0052034Y0066307D01*
X0051866Y0066272D01*
X0051697Y0066240D01*
X0051527Y0066213D01*
X0051357Y0066190D01*
X0051186Y0066171D01*
X0051015Y0066156D01*
X0050843Y0066145D01*
X0050672Y0066139D01*
X0050500Y0066137D01*
X0050328Y0066139D01*
X0050157Y0066145D01*
X0049985Y0066156D01*
X0049814Y0066171D01*
X0049643Y0066190D01*
X0049473Y0066213D01*
X0049303Y0066240D01*
X0049134Y0066272D01*
X0048966Y0066307D01*
X0048799Y0066347D01*
X0048633Y0066391D01*
X0048468Y0066438D01*
X0048304Y0066490D01*
X0048142Y0066546D01*
X0047981Y0066606D01*
X0047821Y0066670D01*
X0047663Y0066738D01*
X0047507Y0066809D01*
X0047353Y0066884D01*
X0047200Y0066964D01*
X0047050Y0067046D01*
X0046901Y0067133D01*
X0046755Y0067223D01*
X0046611Y0067317D01*
X0046469Y0067414D01*
X0046330Y0067515D01*
X0046193Y0067619D01*
X0046059Y0067726D01*
X0045928Y0067837D01*
X0045799Y0067950D01*
X0045673Y0068067D01*
X0045550Y0068187D01*
X0045430Y0068310D01*
X0045313Y0068436D01*
X0045200Y0068565D01*
X0045089Y0068696D01*
X0044982Y0068830D01*
X0044878Y0068967D01*
X0044777Y0069106D01*
X0044680Y0069248D01*
X0044586Y0069392D01*
X0044496Y0069538D01*
X0044409Y0069687D01*
X0044327Y0069837D01*
X0044247Y0069990D01*
X0044172Y0070144D01*
X0044101Y0070300D01*
X0044033Y0070458D01*
X0043969Y0070618D01*
X0043909Y0070779D01*
X0043853Y0070941D01*
X0043801Y0071105D01*
X0043754Y0071270D01*
X0043710Y0071436D01*
X0043670Y0071603D01*
X0043635Y0071771D01*
X0043603Y0071940D01*
X0043576Y0072110D01*
X0043553Y0072280D01*
X0043534Y0072451D01*
X0043519Y0072622D01*
X0043508Y0072794D01*
X0043502Y0072965D01*
X0043500Y0073137D01*
X0146500Y0041137D02*
X0148295Y0040957D01*
X0150093Y0040817D01*
X0151894Y0040717D01*
X0153696Y0040657D01*
X0155500Y0040637D01*
X0157304Y0040657D01*
X0159106Y0040717D01*
X0160907Y0040817D01*
X0162705Y0040957D01*
X0164500Y0041137D01*
X0164500Y0055137D02*
X0162705Y0055318D01*
X0160907Y0055458D01*
X0159106Y0055559D01*
X0157304Y0055619D01*
X0155500Y0055639D01*
X0153696Y0055619D01*
X0151894Y0055559D01*
X0150093Y0055458D01*
X0148295Y0055318D01*
X0146500Y0055137D01*
D74*
X0240500Y0062637D03*
D75*
X0240500Y0056387D03*
X0240500Y0079887D03*
D76*
X0226500Y0095137D02*
X0226500Y0098137D01*
X0226500Y0101137D01*
X0224500Y0101137D02*
X0224500Y0098137D01*
X0224500Y0095137D01*
X0221531Y0060083D02*
X0221362Y0059984D01*
X0221196Y0059880D01*
X0221032Y0059773D01*
X0220871Y0059662D01*
X0220713Y0059547D01*
X0220558Y0059428D01*
X0220405Y0059305D01*
X0220256Y0059179D01*
X0220110Y0059049D01*
X0219967Y0058915D01*
X0219827Y0058778D01*
X0219691Y0058638D01*
X0219558Y0058494D01*
X0219429Y0058347D01*
X0219303Y0058197D01*
X0219182Y0058044D01*
X0219063Y0057888D01*
X0218949Y0057729D01*
X0218839Y0057568D01*
X0218733Y0057403D01*
X0218630Y0057237D01*
X0218532Y0057067D01*
X0218438Y0056896D01*
X0218348Y0056722D01*
X0218263Y0056546D01*
X0218181Y0056368D01*
X0218105Y0056188D01*
X0218032Y0056006D01*
X0217964Y0055823D01*
X0217901Y0055638D01*
X0217842Y0055451D01*
X0217788Y0055263D01*
X0217738Y0055074D01*
X0217693Y0054884D01*
X0217653Y0054692D01*
X0217617Y0054500D01*
X0217586Y0054307D01*
X0217560Y0054113D01*
X0217538Y0053918D01*
X0217522Y0053723D01*
X0217510Y0053528D01*
X0217502Y0053332D01*
X0217500Y0053137D01*
X0229265Y0060195D02*
X0229433Y0060102D01*
X0229599Y0060006D01*
X0229763Y0059906D01*
X0229924Y0059801D01*
X0230083Y0059693D01*
X0230239Y0059581D01*
X0230393Y0059465D01*
X0230543Y0059346D01*
X0230691Y0059223D01*
X0230836Y0059097D01*
X0230977Y0058967D01*
X0231116Y0058834D01*
X0231251Y0058697D01*
X0231383Y0058557D01*
X0231511Y0058415D01*
X0231636Y0058269D01*
X0231758Y0058120D01*
X0231876Y0057968D01*
X0231990Y0057814D01*
X0232100Y0057656D01*
X0232207Y0057497D01*
X0232310Y0057334D01*
X0232409Y0057169D01*
X0232504Y0057002D01*
X0232594Y0056833D01*
X0232681Y0056662D01*
X0232764Y0056488D01*
X0232842Y0056313D01*
X0232916Y0056135D01*
X0232986Y0055956D01*
X0233052Y0055776D01*
X0233113Y0055594D01*
X0233170Y0055410D01*
X0233222Y0055225D01*
X0233270Y0055039D01*
X0233314Y0054852D01*
X0233353Y0054664D01*
X0233387Y0054475D01*
X0233417Y0054285D01*
X0233442Y0054095D01*
X0233463Y0053904D01*
X0233479Y0053712D01*
X0233491Y0053520D01*
X0233498Y0053328D01*
X0233500Y0053136D01*
X0220332Y0047030D02*
X0220186Y0047157D01*
X0220044Y0047286D01*
X0219904Y0047420D01*
X0219768Y0047556D01*
X0219635Y0047696D01*
X0219505Y0047839D01*
X0219379Y0047986D01*
X0219257Y0048135D01*
X0219138Y0048287D01*
X0219023Y0048442D01*
X0218911Y0048599D01*
X0218804Y0048759D01*
X0218700Y0048922D01*
X0218601Y0049088D01*
X0218505Y0049255D01*
X0218413Y0049425D01*
X0218326Y0049597D01*
X0218242Y0049771D01*
X0218163Y0049947D01*
X0218089Y0050125D01*
X0218018Y0050305D01*
X0217952Y0050486D01*
X0217890Y0050669D01*
X0217833Y0050853D01*
X0217780Y0051039D01*
X0217732Y0051226D01*
X0217688Y0051414D01*
X0217649Y0051603D01*
X0217614Y0051793D01*
X0217584Y0051983D01*
X0217558Y0052174D01*
X0217537Y0052366D01*
X0217521Y0052559D01*
X0217509Y0052751D01*
X0217502Y0052944D01*
X0217500Y0053137D01*
X0230622Y0046991D02*
X0230770Y0047118D01*
X0230915Y0047248D01*
X0231056Y0047381D01*
X0231195Y0047518D01*
X0231330Y0047658D01*
X0231461Y0047802D01*
X0231589Y0047949D01*
X0231714Y0048098D01*
X0231835Y0048251D01*
X0231952Y0048406D01*
X0232065Y0048565D01*
X0232174Y0048726D01*
X0232279Y0048890D01*
X0232381Y0049056D01*
X0232478Y0049225D01*
X0232571Y0049395D01*
X0232660Y0049569D01*
X0232745Y0049744D01*
X0232825Y0049921D01*
X0232901Y0050100D01*
X0232973Y0050281D01*
X0233040Y0050464D01*
X0233103Y0050648D01*
X0233161Y0050834D01*
X0233215Y0051021D01*
X0233264Y0051209D01*
X0233309Y0051399D01*
X0233349Y0051589D01*
X0233384Y0051781D01*
X0233415Y0051973D01*
X0233441Y0052166D01*
X0233462Y0052360D01*
X0233479Y0052554D01*
X0233491Y0052748D01*
X0233498Y0052942D01*
X0233500Y0053137D01*
X0041500Y0095137D02*
X0041500Y0098137D01*
X0041500Y0101137D01*
X0039500Y0101137D02*
X0039500Y0098137D01*
X0039500Y0095137D01*
M02*
